<svg width="126" height="131" viewBox="0 0 126 131" fill="none" xmlns="http://www.w3.org/2000/svg">
<path d="M122.694 71.1218C122.694 95.2574 108.409 116.052 87.8446 125.499C84.9069 126.853 81.8539 127.947 78.7146 128.811C78.0809 128.984 77.4185 129.157 76.7849 129.301C76.3817 129.387 76.0072 129.474 75.604 129.56C75.2872 129.618 74.9704 129.704 74.6536 129.762C70.8518 130.51 66.9348 130.914 62.9026 130.914C58.8992 130.914 54.9534 130.51 51.1516 129.762C50.8348 129.704 50.518 129.646 50.2012 129.56C49.6539 129.445 49.1355 129.329 48.5883 129.185C47.8394 129.013 47.0906 128.811 46.3418 128.581C43.3464 127.717 40.4663 126.651 37.7013 125.355C17.2523 115.85 3.08203 95.1134 3.08203 71.093V71.0066C3.08203 59.7453 6.22139 49.2039 11.6649 40.1891C13.7098 36.8193 16.0715 33.6512 18.6924 30.771C19.7293 29.6478 20.7949 28.5533 21.8894 27.5165C22.0046 27.4013 22.1198 27.3148 22.235 27.1996C24.1071 25.4428 26.0944 23.8299 28.1969 22.3322C30.9906 20.3449 33.9572 18.588 37.0965 17.0903C37.9606 16.6871 38.8246 16.2839 39.7174 15.9095C46.8602 12.9141 54.6654 11.2437 62.9026 11.2437C71.111 11.2437 78.945 12.9141 86.0877 15.9095C94.0657 19.2793 101.151 24.2907 106.94 30.5694C109.763 33.6224 112.268 36.9921 114.4 40.5923C119.555 49.2903 122.579 59.3996 122.723 70.2002C122.694 70.517 122.694 70.805 122.694 71.1218Z" fill="#FFF3FF"/>
<path d="M116.329 44.2787C115.724 43.9619 115.12 43.6738 114.486 43.4146C111.779 42.2626 108.927 41.6865 105.961 41.6577L106.22 35.8111H107.113C108.294 35.8111 109.388 35.3502 110.195 34.5726C109.129 33.2189 108.034 31.8941 106.882 30.6268C103.167 26.5946 98.9044 23.0808 94.2098 20.1719H31.5091C30.357 20.8631 29.2626 21.6119 28.1681 22.3896C26.0656 23.8873 24.0783 25.5001 22.2062 27.257C22.091 27.3722 21.9758 27.4586 21.8606 27.5738C20.9966 28.3803 20.1613 29.2155 19.3549 30.0796L19.8157 32.2685C20.2477 34.3134 22.0622 35.7822 24.1647 35.7822H25.0576L25.144 37.9712L25.3168 41.6289C22.379 41.6577 19.4989 42.2626 16.7916 43.3858C16.0427 43.7026 15.3227 44.0483 14.6314 44.4515C12.817 45.4595 11.1465 46.7268 9.6776 48.1957C8.03592 49.8373 6.68225 51.6806 5.6454 53.6967C4.40694 57.8153 3.5717 62.1068 3.25488 66.5422C3.48529 68.7023 4.03252 70.8048 4.89656 72.7921C5.24218 73.6273 5.6454 74.4338 6.10622 75.2114C7.08547 76.9395 8.29513 78.4948 9.7064 79.9348C11.7801 82.0085 14.1706 83.6214 16.8492 84.7447C19.6141 85.9255 22.5518 86.5016 25.6048 86.5016H29.8962C34.7348 97.7917 44.7577 106.317 56.9119 109.139L56.7679 109.744L56.5951 110.493L53.571 124.347H52.2173C50.9212 124.347 49.7404 124.865 48.8763 125.729C48.0699 126.536 47.5515 127.659 47.4939 128.868H47.2923C47.7243 128.984 48.1563 129.099 48.5883 129.214C49.1356 129.358 49.654 129.473 50.2012 129.589C50.518 129.646 50.8348 129.733 51.1517 129.79C54.9534 130.539 58.8704 130.942 62.9026 130.942C66.906 130.942 70.8518 130.539 74.6536 129.79C74.9704 129.733 75.2873 129.675 75.6041 129.589C76.0073 129.502 76.4105 129.416 76.7849 129.329C77.4474 129.185 78.081 129.012 78.7146 128.84C80.3563 128.408 81.9404 127.889 83.5245 127.313C82.8332 125.585 81.1339 124.375 79.1467 124.375H77.793L75.4313 113.517L74.4808 109.197C86.6638 106.375 96.6579 97.8781 101.497 86.5592H105.788C108.812 86.5592 111.75 85.9543 114.544 84.8023C117.222 83.679 119.613 82.0662 121.686 79.9924C121.83 79.8484 122.003 79.6756 122.147 79.5028C122.522 76.7667 122.723 73.9729 122.723 71.1216C122.723 70.8336 122.723 70.5456 122.723 70.2576C122.55 60.8971 120.275 52.0839 116.329 44.2787ZM25.5472 78.1204C17.7996 78.1204 11.5209 71.8128 11.5209 64.0941C11.5209 56.3465 17.8284 50.039 25.5472 50.039H25.72L26.7568 72.4753C26.8145 74.405 27.0161 76.2771 27.3617 78.1204H25.5472ZM105.759 78.1204H103.973C104.29 76.2771 104.492 74.405 104.578 72.4753L105.615 50.039H105.788C113.536 50.039 119.843 56.3465 119.843 64.0941C119.814 71.8128 113.507 78.1204 105.759 78.1204Z" fill="#B36FB4"/>
<path d="M76.6688 129.388C76.2656 129.475 75.8911 129.561 75.4879 129.647C75.1711 129.705 74.8543 129.791 74.5375 129.849H51.0643C50.7475 129.791 50.4307 129.734 50.1139 129.647C49.5666 129.532 49.0482 129.417 48.501 129.273L49.4802 124.722L50.4595 120.2L53.4548 106.405L53.7428 105.022L54.9237 99.665H70.1597L71.3405 105.022L72.291 109.342L74.6527 120.2L75.6319 124.722L76.6688 129.388Z" fill="#FFD31D"/>
<path d="M70.1892 99.665H54.9532L53.4844 106.405C58.179 108.392 63.3345 109.515 68.7491 109.515C69.9588 109.515 71.1396 109.458 72.2917 109.342L70.1892 99.665Z" fill="#FFAB2E"/>
<path d="M80.7595 124.923C80.7595 126.219 80.2411 127.4 79.377 128.264C79.1466 128.494 78.8874 128.696 78.5994 128.897C77.9658 129.07 77.3033 129.243 76.6697 129.387C76.2665 129.473 75.8921 129.56 75.4888 129.646H50.1148C49.5676 129.531 49.0491 129.416 48.5019 129.272C47.7531 129.099 47.0042 128.897 46.2554 128.667C45.1321 127.803 44.4121 126.449 44.4121 124.923C44.4121 124.865 44.4121 124.779 44.4121 124.721C44.4697 123.483 44.9881 122.388 45.7946 121.582C46.6586 120.718 47.8395 120.199 49.1355 120.199H76.0361C78.5706 120.199 80.6443 122.215 80.7595 124.721C80.7595 124.807 80.7595 124.865 80.7595 124.923Z" fill="#FFBF1F"/>
<path d="M87.7292 125.585C84.7915 126.939 81.7385 128.033 78.5992 128.897C77.9655 129.07 77.3031 129.243 76.6695 129.387C76.2663 129.473 75.8918 129.56 75.4886 129.646C75.1718 129.704 74.855 129.79 74.5382 129.848C70.7364 130.597 66.8194 131 62.7872 131C58.7838 131 54.838 130.597 51.0362 129.848C50.7194 129.79 50.4026 129.733 50.0858 129.646C49.5385 129.531 49.0201 129.416 48.4729 129.272C47.724 129.099 46.9752 128.897 46.2264 128.667C43.231 127.803 40.3509 126.737 37.5859 125.441C38.4212 124.98 39.4004 124.721 40.4085 124.721H84.7051C85.7995 124.75 86.8364 125.038 87.7292 125.585Z" fill="#594A43"/>
<path d="M123.357 51.2212C122.233 48.5427 120.62 46.1521 118.547 44.0784C117.251 42.7824 115.811 41.6591 114.255 40.7087C113.334 40.1615 112.383 39.6718 111.404 39.2686C108.697 38.1166 105.845 37.5405 102.879 37.5117C102.792 37.5117 102.735 37.5117 102.648 37.5117H22.4651C22.3787 37.5117 22.3211 37.5117 22.2347 37.5117C19.297 37.5405 16.4168 38.1454 13.7095 39.2686C12.9606 39.5854 12.2406 39.931 11.5494 40.3343C9.73488 41.3423 8.0644 42.6096 6.59553 44.0784C4.52182 46.1521 2.90894 48.5427 1.78569 51.2212C0.60483 53.9861 0 56.9239 0 59.948C0 62.9722 0.60483 65.9099 1.75689 68.7037C2.1025 69.5389 2.50572 70.3453 2.96655 71.123C3.9458 72.8511 5.15546 74.4063 6.56672 75.8464C8.64043 77.9201 11.0309 79.533 13.7095 80.6563C16.4744 81.8371 19.4122 82.4131 22.4651 82.4131H102.677C105.701 82.4131 108.639 81.8083 111.433 80.6563C114.111 79.533 116.502 77.9201 118.575 75.8464C120.217 74.2047 121.571 72.3614 122.608 70.3453C122.896 69.8269 123.126 69.2797 123.385 68.7037C124.566 65.9387 125.142 63.001 125.142 59.948C125.142 56.9239 124.537 53.9861 123.357 51.2212ZM102.677 74.0031H22.4651C14.7175 74.0031 8.43882 67.6956 8.43882 59.9768C8.43882 52.2292 14.7463 45.9217 22.4651 45.9217H102.677C110.425 45.9217 116.732 52.2292 116.732 59.9768C116.703 67.6956 110.425 74.0031 102.677 74.0031Z" fill="#FFBF1F"/>
<path d="M25.518 45.9212H102.677C103.627 45.9212 104.549 46.0077 105.442 46.2093L105.816 37.7416C104.837 37.5976 103.858 37.54 102.879 37.5112C102.792 37.5112 102.735 37.5112 102.648 37.5112H25.1436L25.518 45.9212Z" fill="#FFAB2E"/>
<path d="M103.915 73.9453C103.512 73.9741 103.109 74.0029 102.677 74.0029H27.0732C27.5629 76.9407 28.3693 79.7632 29.4638 82.4129H101.496C102.619 79.7344 103.426 76.8831 103.915 73.9453Z" fill="#FFAB2E"/>
<path d="M20.6508 46.0365C21.2268 45.95 21.8316 45.9212 22.4653 45.9212H100.748L101.122 37.5112H22.4653C22.3789 37.5112 22.3213 37.5112 22.2349 37.5112C21.5724 37.5112 20.91 37.54 20.2764 37.6264L20.6508 46.0365Z" fill="#FFAB2E"/>
<path d="M97.3196 82.4125C98.2989 79.7339 98.9613 76.9114 99.3357 74.0024H22.4647C22.3207 74.0024 22.2055 74.0024 22.0615 74.0024C22.4071 76.9114 23.0984 79.7339 24.0776 82.4125H97.3196Z" fill="#FFAB2E"/>
<path d="M62.5563 106.03C41.5312 106.03 24.308 89.3542 23.6455 68.3291L21.7734 27.3159H103.368L101.496 68.3291C100.805 89.3542 83.5813 106.03 62.5563 106.03Z" fill="#FFD31D"/>
<path d="M102.792 39.7581L103.368 27.3159H21.7734L22.0615 33.825L102.792 39.7581Z" fill="#FFAB2E"/>
<path d="M104.06 31.6641H21.0828C18.9803 31.6641 17.1658 30.1952 16.7338 28.1503L15.2937 21.4108C14.7177 18.6458 16.8202 16.0537 19.6428 16.0537H105.5C108.322 16.0537 110.425 18.6458 109.849 21.4108L108.409 28.1503C107.977 30.1952 106.162 31.6641 104.06 31.6641Z" fill="#FFBF1F"/>
<path d="M66.5317 21.756H21.0255C20.1038 21.756 19.3838 21.0072 19.3838 20.1143C19.3838 19.1927 20.1326 18.4727 21.0255 18.4727H66.5317C67.4534 18.4727 68.1734 19.2215 68.1734 20.1143C68.2022 21.0072 67.4534 21.756 66.5317 21.756Z" fill="white"/>
<path d="M74.2504 21.1503C75.6041 19.3934 73.588 17.3773 71.8311 18.731C70.5062 20.4879 72.4935 22.4752 74.2504 21.1503Z" fill="white"/>
<path d="M101.468 7.81658C100.69 7.81658 99.9701 7.26935 99.7973 6.46291L98.9621 2.0851C98.7605 1.16345 99.3365 0.241808 100.258 0.0401978C101.18 -0.161412 102.101 0.414616 102.303 1.33626L103.138 5.71408C103.34 6.63572 102.764 7.55737 101.842 7.75898C101.698 7.78778 101.583 7.81658 101.468 7.81658Z" fill="#FFD31D"/>
<path d="M111.865 10.4659C111.52 10.4659 111.203 10.3795 110.915 10.1779C110.137 9.65944 109.936 8.59378 110.454 7.81615L114.717 1.53743C115.235 0.759795 116.301 0.558185 117.078 1.07661C117.856 1.59504 118.058 2.66069 117.539 3.43833L113.277 9.71704C112.931 10.2067 112.413 10.4659 111.865 10.4659Z" fill="#FFBF1F"/>
<path d="M118.518 19.4239C117.711 19.4239 116.963 18.8191 116.847 17.9838C116.703 17.0622 117.308 16.1693 118.259 16.0253L123.385 15.1325C124.307 14.9885 125.2 15.5933 125.344 16.5437C125.488 17.4654 124.883 18.3582 123.932 18.5022L118.806 19.3951C118.719 19.4239 118.633 19.4239 118.518 19.4239Z" fill="#FFD31D"/>
<path opacity="0.8" d="M36.664 47.822C37.096 42.4073 37.7297 38.8647 37.7297 38.8647L27.0443 39.0376C26.8427 42.1193 26.6987 45.0571 26.6699 47.822H36.664Z" fill="#FFEF42"/>
<path opacity="0.8" d="M36.232 55.5693H26.7275C28.4556 94.8257 48.3862 96.4098 48.3862 96.4098C37.7009 87.7405 35.9152 69.25 36.232 55.5693Z" fill="#FFEF42"/>
<path d="M65.178 42.5803L69.1814 50.6735C69.6711 51.6528 70.5927 52.344 71.6872 52.488L80.6156 53.7841C83.3517 54.1873 84.4462 57.5283 82.4589 59.458L75.9786 65.7655C75.2009 66.5431 74.8265 67.6376 75.0281 68.7032L76.5546 77.6029C77.0154 80.3102 74.1641 82.3839 71.716 81.1167L63.7092 76.9116C62.7299 76.3932 61.5779 76.3932 60.5986 76.9116L52.5918 81.1167C50.1437 82.4127 47.2924 80.339 47.7532 77.6029L49.2797 68.7032C49.4525 67.6376 49.1068 66.5143 48.3292 65.7655L41.8489 59.458C39.8616 57.5283 40.956 54.1873 43.6922 53.7841L52.6206 52.488C53.7151 52.344 54.6367 51.6528 55.1263 50.6735L59.1297 42.5803C60.4258 40.1034 63.9396 40.1034 65.178 42.5803Z" fill="white"/>
<path d="M96.4849 47.1307L91.243 41.6008C90.8686 41.1976 90.235 41.1976 89.8605 41.6008L84.4459 47.1595C83.841 47.7931 82.7754 47.3611 82.7754 46.4971V16.1404C82.7754 15.5355 83.265 15.0459 83.8699 15.0459H97.0609C97.6657 15.0459 98.1554 15.5355 98.1554 16.1404V46.4971C98.1265 47.3323 97.0897 47.7643 96.4849 47.1307Z" fill="#DA2D2D"/>
<path d="M95.2467 18.8763H85.1086C84.3885 18.8763 83.8125 18.3003 83.8125 17.5802C83.8125 16.8602 84.3885 16.2842 85.1086 16.2842H95.2467C95.9667 16.2842 96.5427 16.8602 96.5427 17.5802C96.5427 18.2715 95.9667 18.8763 95.2467 18.8763Z" fill="#F75959"/>
<path d="M2.15982 57.4133C2.13102 57.4133 2.10222 57.4133 2.07342 57.4133C1.64139 57.3557 1.32458 56.9812 1.35338 56.5492C1.58379 54.3027 2.27503 52.1426 3.42708 50.0977C4.34873 48.4848 5.52959 46.9295 6.96966 45.5183C9.41778 43.0989 11.7219 41.8893 11.8371 41.8317C12.2403 41.6301 12.7011 41.7741 12.9028 42.1773C13.1044 42.5805 12.9604 43.0413 12.5571 43.243C12.5283 43.243 10.3394 44.4238 8.03531 46.6703C5.01116 49.6369 3.31188 53.0066 2.93746 56.6644C2.90866 57.0964 2.56304 57.4133 2.15982 57.4133Z" fill="#FFF083"/>
<path d="M105.73 76.393C105.327 76.393 104.981 76.0762 104.924 75.6729C104.895 75.2409 105.212 74.8377 105.644 74.8089C105.701 74.8089 107.89 74.5785 110.367 73.3688C113.651 71.7559 115.897 69.2214 117.049 65.8805C117.193 65.4484 117.654 65.2468 118.057 65.3908C118.489 65.5348 118.691 65.9957 118.547 66.3989C117.28 70.1431 114.687 73.0808 111.001 74.8377C108.236 76.1626 105.874 76.393 105.788 76.4218C105.759 76.393 105.759 76.393 105.73 76.393Z" fill="#FFF083"/>
<path d="M38.9688 46.1513C37.2695 46.8426 35.9158 48.1962 35.2246 49.8955C35.1094 50.1547 34.735 50.1547 34.6486 49.8955C33.9573 48.1962 32.6037 46.8426 30.9044 46.1513C30.6452 46.0361 30.6452 45.6617 30.9044 45.5753C32.6037 44.8841 33.9573 43.5304 34.6486 41.8311C34.7638 41.5719 35.1382 41.5719 35.2246 41.8311C35.9158 43.5304 37.2695 44.8841 38.9688 45.5753C39.228 45.6617 39.228 46.0361 38.9688 46.1513Z" fill="white"/>
<path d="M99.0196 80.3095C97.3203 81.0008 95.9666 82.3544 95.2754 84.0537C95.1602 84.3129 94.7857 84.3129 94.6993 84.0537C94.0081 82.3544 92.6544 81.0008 90.9552 80.3095C90.6959 80.1943 90.6959 79.8199 90.9552 79.7335C92.6544 79.0423 94.0081 77.6886 94.6993 75.9893C94.8145 75.7301 95.189 75.7301 95.2754 75.9893C95.9666 77.6886 97.3203 79.0423 99.0196 79.7335C99.2788 79.8487 99.2788 80.2231 99.0196 80.3095Z" fill="white"/>
<path d="M34.2737 37.3955C31.3072 38.6339 28.9167 40.9957 27.707 43.9622C27.5054 44.423 26.8718 44.423 26.6702 43.9622C25.4317 40.9957 23.07 38.6051 20.1034 37.3955C19.6426 37.1939 19.6426 36.5602 20.1034 36.3586C23.07 35.1202 25.4605 32.7585 26.6702 29.7919C26.8718 29.3311 27.5054 29.3311 27.707 29.7919C28.9455 32.7585 31.3072 35.149 34.2737 36.3586C34.7346 36.5602 34.7346 37.1939 34.2737 37.3955Z" fill="white"/>
<path d="M93.8352 100.01C90.8687 101.248 88.4782 103.61 87.2685 106.576C87.0669 107.037 86.4333 107.037 86.2317 106.576C84.9932 103.61 82.6315 101.219 79.665 100.01C79.2041 99.8081 79.2041 99.1745 79.665 98.9729C82.6315 97.7344 85.022 95.3727 86.2317 92.4062C86.4333 91.9453 87.0669 91.9453 87.2685 92.4062C88.507 95.3727 90.8687 97.7632 93.8352 98.9729C94.2961 99.1745 94.2961 99.8369 93.8352 100.01Z" fill="white"/>
</svg>
