<svg width="126" height="157" viewBox="0 0 126 157" fill="none" xmlns="http://www.w3.org/2000/svg">
<path d="M61.8261 120.078C94.9848 120.078 121.865 93.1977 121.865 60.039C121.865 26.8804 94.9848 0 61.8261 0C28.6675 0 1.78711 26.8804 1.78711 60.039C1.78711 93.1977 28.6675 120.078 61.8261 120.078Z" fill="#FFF3FF"/>
<path d="M111.459 93.8311C110.505 77.4122 100.619 63.3636 86.5992 56.5127C87.2352 55.3854 87.5821 54.0557 87.5821 52.6681C87.5821 50.3267 86.5703 48.2454 84.9516 46.8001L99.2603 13.1528C96.2251 10.7246 92.9587 8.58556 89.4899 6.79335C83.7375 4.36519 77.5226 2.83314 71.0186 2.34173L70.2092 4.24956L66.9138 11.9676L61.6817 0.0581055C51.5644 0.0870121 42.0253 2.60189 33.6423 7.0535L49.1074 47.0892C47.6331 48.5345 46.737 50.5291 46.737 52.726C46.737 54.1135 47.1128 55.4432 47.7199 56.5705C32.9486 63.7683 22.7734 78.9153 22.7734 96.4617C22.7734 100.017 23.1781 103.457 23.9875 106.781C34.3072 115.135 47.4597 120.165 61.7685 120.165C82.4656 120.078 100.677 109.672 111.459 93.8311Z" fill="#B36FB4"/>
<path d="M95.1846 10.147L78.8813 48.4483L78.6211 49.0264H45.7832L46.0434 48.4483L62.4623 9.82903L66.567 0.203125C77.0891 1.01251 86.8884 4.56802 95.1846 10.147Z" fill="#DA2D2D"/>
<path d="M65.7573 2.11035L46.043 48.4477L46.2742 49.0258H78.6496L78.9387 48.332L65.7573 2.11035Z" fill="#B82727"/>
<path d="M79.1397 49.0257H46.2729L46.0127 48.4476L29.4492 9.48146C37.861 4.07593 47.7182 0.722761 58.3269 0.115723L62.4606 9.82834L78.8795 48.4476L79.1397 49.0257Z" fill="#DA2D2D"/>
<path d="M75.2371 58.4793H50.204C45.8391 58.4793 42.3125 54.9527 42.3125 50.5878C42.3125 46.2229 45.8391 42.6963 50.204 42.6963H75.2371C79.602 42.6963 83.1286 46.2229 83.1286 50.5878C83.1286 54.9238 79.5731 58.4793 75.2371 58.4793Z" fill="#FFD31D"/>
<path d="M75.5839 47.0322H50.175C49.3367 47.0322 48.6719 46.3673 48.6719 45.529C48.6719 44.6907 49.3367 44.0259 50.175 44.0259H75.5839C76.4222 44.0259 77.0871 44.6907 77.0871 45.529C77.0582 46.3673 76.3933 47.0322 75.5839 47.0322Z" fill="white"/>
<path d="M94.0642 125.645C111.381 108.329 111.381 80.2525 94.0642 62.9358C76.7475 45.619 48.6715 45.619 31.3547 62.9358C14.038 80.2525 14.038 108.329 31.3547 125.645C48.6715 142.962 76.7475 142.962 94.0642 125.645Z" fill="#FFBF1F"/>
<path d="M22.1649 96.4611C21.3844 96.4611 20.7196 95.8251 20.7196 95.0446C20.575 89.8703 21.3844 84.7828 23.0899 79.9554C23.0899 79.9554 23.0899 79.9554 23.0899 79.9265C25.4024 73.6827 28.9291 68.2771 33.6408 63.8833C33.6986 63.8255 33.7565 63.7677 33.8143 63.7388C33.901 63.681 34.0455 63.5942 34.1033 63.5364C35.0572 62.5536 36.0979 61.7731 37.0807 61.0505C37.4276 60.7903 37.8034 60.5301 38.1503 60.2411C38.1792 60.2122 38.2081 60.2122 38.2081 60.1833C39.2487 59.4606 40.405 58.709 41.8214 57.9286C41.8503 57.9286 41.8503 57.8996 41.8792 57.8996C42.1394 57.784 42.3706 57.6395 42.6308 57.495C43.1222 57.2348 43.6425 56.9457 44.2206 56.7145C44.9722 56.3965 45.8105 56.7723 46.1285 57.495C46.4465 58.2465 46.0707 59.0848 45.348 59.4028C44.8855 59.5762 44.4808 59.8075 44.0472 60.0676C43.7871 60.2122 43.5269 60.3567 43.2378 60.5012C41.9659 61.195 40.8964 61.9177 39.9425 62.5536C39.5667 62.8427 39.2198 63.1028 38.844 63.363C37.8901 64.0567 36.994 64.7216 36.2135 65.531L36.1846 65.5599C35.9823 65.7622 35.7799 65.9068 35.5776 66.0513C31.2416 70.1271 27.9751 75.0991 25.8649 80.8804C24.2751 85.3609 23.5235 90.0727 23.6681 94.9001C23.697 95.7095 23.061 96.3743 22.2516 96.4032C22.1938 96.4611 22.1649 96.4611 22.1649 96.4611Z" fill="white"/>
<path d="M87.6661 119.248C101.45 105.465 101.45 83.1174 87.6661 69.3339C73.8827 55.5505 51.5354 55.5505 37.752 69.334C23.9686 83.1174 23.9686 105.465 37.752 119.248C51.5354 133.031 73.8827 133.032 87.6661 119.248Z" fill="#FFD31D"/>
<path opacity="0.5" d="M86.7432 68.4795C92.4667 74.7522 95.9355 83.0773 95.9355 92.2407C95.9355 111.724 80.1525 127.536 60.6405 127.536C51.3615 127.536 42.9208 123.951 36.6191 118.083C43.0653 125.165 52.3732 129.617 62.6929 129.617C82.176 129.617 97.9879 113.834 97.9879 94.322C97.9879 84.0891 93.6519 74.9257 86.7432 68.4795Z" fill="#FFEFAB"/>
<path d="M29.7961 97.7906C29.7961 78.3076 45.5791 62.4956 65.0911 62.4956C76.4803 62.4956 86.6265 67.9012 93.0727 76.2841C86.9156 65.9355 75.642 59.0269 62.7207 59.0269C43.2377 59.0269 27.4258 74.8099 27.4258 94.3218C27.4258 102.416 30.143 109.874 34.7391 115.799C31.5883 110.51 29.7961 104.352 29.7961 97.7906Z" fill="#FFAB2E"/>
<path d="M66.075 71.6579L70.5844 80.7924C71.1336 81.8909 72.1743 82.6713 73.4173 82.8448L83.5057 84.319C86.5698 84.7526 87.8128 88.5394 85.5869 90.7074L78.3025 97.8184C77.4064 98.6856 77.0017 99.9286 77.2329 101.143L78.9673 111.173C79.4876 114.237 76.279 116.579 73.5329 115.133L64.514 110.393C63.4156 109.815 62.1148 109.815 61.0163 110.393L51.9975 115.133C49.2513 116.579 46.0427 114.237 46.563 111.173L48.2974 101.143C48.4998 99.9286 48.0951 98.6856 47.2279 97.8184L39.8567 90.7074C37.6309 88.5394 38.845 84.7526 41.938 84.319L52.0264 82.8448C53.2404 82.6713 54.31 81.8909 54.8592 80.7924L59.3686 71.6579C60.7273 68.8829 64.6875 68.8829 66.075 71.6579Z" fill="white"/>
<path d="M24.102 102.272C24.102 101.521 23.495 100.914 22.7434 100.914C21.9918 100.914 21.3848 101.521 21.3848 102.272C21.3848 103.024 21.9918 103.631 22.7434 103.631C23.495 103.66 24.102 103.053 24.102 102.272Z" fill="white"/>
<path d="M106.111 54.2286C102.932 55.5294 100.388 58.0732 99.087 61.2529C98.8847 61.7443 98.1909 61.7443 97.9886 61.2529C96.6878 58.0732 94.144 55.5294 90.9643 54.2286C90.4729 54.0263 90.4729 53.3325 90.9643 53.1302C94.144 51.8294 96.6878 49.2856 97.9886 46.1059C98.1909 45.6145 98.8847 45.6145 99.087 46.1059C100.388 49.2856 102.932 51.8294 106.111 53.1302C106.603 53.3036 106.603 54.0263 106.111 54.2286Z" fill="white"/>
<path d="M97.8144 72.0062C96.1089 72.7 94.7503 74.0586 94.0565 75.7641C93.9409 76.0242 93.5651 76.0242 93.4784 75.7641C92.7846 74.0586 91.426 72.7 89.7205 72.0062C89.4604 71.8906 89.4604 71.5148 89.7205 71.4281C91.426 70.7343 92.7846 69.3757 93.4784 67.6702C93.594 67.4101 93.9698 67.4101 94.0565 67.6702C94.7503 69.3757 96.1089 70.7343 97.8144 71.4281C98.0745 71.5148 98.0745 71.8906 97.8144 72.0062Z" fill="white"/>
<path d="M36.5038 49.9212C34.7983 50.615 33.4397 51.9736 32.746 53.6791C32.6303 53.9393 32.2545 53.9393 32.1678 53.6791C31.4741 51.9736 30.1155 50.615 28.41 49.9212C28.1498 49.8056 28.1498 49.4298 28.41 49.3431C30.1155 48.6494 31.4741 47.2907 32.1678 45.5853C32.2834 45.3251 32.6592 45.3251 32.746 45.5853C33.4397 47.2907 34.7983 48.6494 36.5038 49.3431C36.764 49.4298 36.764 49.8056 36.5038 49.9212Z" fill="white"/>
<path d="M28.1197 35.0349C25.1423 36.2778 22.7431 38.6482 21.529 41.6256C21.3266 42.0881 20.6907 42.0881 20.4884 41.6256C19.2454 38.6482 16.875 36.2489 13.8977 35.0349C13.4352 34.8325 13.4352 34.1966 13.8977 33.9942C16.875 32.7512 19.2743 30.3809 20.4884 27.4035C20.6907 26.941 21.3266 26.941 21.529 27.4035C22.772 30.3809 25.1423 32.7801 28.1197 33.9942C28.5822 34.1966 28.5822 34.8614 28.1197 35.0349Z" fill="white"/>
<path d="M38.123 116.32C36.4175 117.014 35.0589 118.373 34.3651 120.078C34.2495 120.338 33.8737 120.338 33.787 120.078C33.0932 118.373 31.7346 117.014 30.0291 116.32C29.7689 116.205 29.7689 115.829 30.0291 115.742C31.7346 115.048 33.0932 113.69 33.787 111.984C33.9026 111.724 34.2784 111.724 34.3651 111.984C35.0589 113.69 36.4175 115.048 38.123 115.742C38.3831 115.829 38.3831 116.205 38.123 116.32Z" fill="white"/>
</svg>
