<svg width="125" height="149" viewBox="0 0 125 149" fill="none" xmlns="http://www.w3.org/2000/svg">
<path d="M124.758 62.3945C124.758 87.5658 109.869 109.259 88.3896 119.114C85.3386 120.517 82.1349 121.677 78.8398 122.592C78.1685 122.775 77.4973 122.958 76.8261 123.111C76.4294 123.202 76.0023 123.294 75.5751 123.385C75.2395 123.446 74.9039 123.538 74.5988 123.599C70.6324 124.392 66.5439 124.789 62.364 124.789C58.184 124.789 54.0956 124.362 50.1292 123.599C49.7935 123.538 49.4579 123.477 49.1528 123.385C48.6036 123.263 48.0239 123.141 47.4747 122.989C46.6814 122.806 45.8882 122.592 45.1254 122.348C42.0133 121.463 38.9927 120.334 36.0942 118.992C14.7672 109.076 0 87.4743 0 62.3945V62.3029C0 50.5563 3.26466 39.5419 8.93966 30.1751C11.0754 26.6664 13.5163 23.3712 16.2927 20.3507C17.3606 19.1913 18.4895 18.0318 19.6184 16.964C19.7405 16.8419 19.8625 16.7504 19.9845 16.6284C21.9372 14.7977 24.012 13.1196 26.2087 11.5636C29.1378 9.48884 32.2194 7.6582 35.484 6.07164C36.3993 5.64449 37.2841 5.21734 38.23 4.85121C45.6746 1.7086 53.821 0 62.3945 0C70.968 0 79.1449 1.73911 86.559 4.85121C94.8884 8.35994 102.272 13.6078 108.313 20.1371C111.242 23.3407 113.866 26.8189 116.093 30.5718C121.463 39.6335 124.636 50.1902 124.789 61.4486C124.758 61.7843 124.758 62.0894 124.758 62.3945Z" fill="#FFF3FF"/>
<path d="M105.719 78.4128C106.818 75.7279 112.767 74.4464 113.316 71.5479C113.866 68.7104 108.892 65.2932 108.892 62.2726C108.892 59.2826 113.866 55.8349 113.316 52.9974C112.737 50.0684 106.818 48.8174 105.719 46.1325C104.59 43.417 107.855 38.3217 106.238 35.8809C104.59 33.44 98.6407 34.5079 96.566 32.4636C94.4913 30.3889 95.5897 24.4393 93.1488 22.7917C90.7385 21.1747 85.6432 24.4393 82.8972 23.3104C80.2123 22.212 78.9308 16.2624 76.0323 15.7133C73.1948 15.1641 69.7776 20.1373 66.757 20.1373C63.767 20.1373 60.3192 15.1641 57.4817 15.7133C54.5527 16.293 53.3018 22.212 50.6168 23.3104C47.9014 24.4393 42.8061 21.1747 40.3652 22.7917C37.9244 24.4393 38.9922 30.3889 36.948 32.4636C34.8733 34.5384 28.9237 33.44 27.2761 35.8809C25.659 38.2912 28.9237 43.3865 27.7948 46.1325C26.6964 48.8174 20.7468 50.0989 20.1976 52.9974C19.6484 55.8349 24.6217 59.2521 24.6217 62.2726C24.6217 65.2627 19.6484 68.7104 20.1976 71.5479C20.7773 74.4769 26.6964 75.7279 27.7948 78.4128C28.9237 81.1283 25.659 86.2236 27.2761 88.6644C28.9237 91.1053 34.8733 90.0374 36.948 92.0816C37.2531 92.3868 37.4972 92.7834 37.6803 93.2716L30.9679 109.015C33.2867 110.541 35.6971 111.883 38.2295 113.043C40.8839 114.293 43.6604 115.331 46.5284 116.155C47.2301 116.368 47.9624 116.551 48.6946 116.734C49.2133 116.856 49.732 116.978 50.2507 117.1C50.5558 117.161 50.8609 117.222 51.166 117.284C54.7968 118.016 58.5801 118.382 62.4245 118.382C66.2688 118.382 70.0522 118.016 73.6829 117.284C73.988 117.222 74.2932 117.161 74.5983 117.1C74.9949 117.009 75.361 116.917 75.7272 116.856C76.3374 116.704 76.9781 116.551 77.5883 116.368C78.6867 116.063 80.0292 118.565 81.4327 121.83C83.8125 121.067 86.1313 120.152 88.3891 119.145C92.7522 117.131 96.8406 114.629 100.593 111.731L94.6133 99.0076C95.1625 96.5972 95.132 93.5156 96.5355 92.1427C98.6102 90.0679 104.56 91.1663 106.207 88.7255C107.855 86.2236 104.56 81.1588 105.719 78.4128Z" fill="#B36FB4"/>
<path d="M63.5229 82.7757L80.0597 75.7277C80.914 75.3615 81.8903 75.7582 82.2565 76.6125L105.933 132.203C106.482 133.515 105.262 134.857 103.919 134.461L84.1786 128.542C83.4159 128.298 82.5616 128.664 82.1954 129.396L72.9202 147.672C72.2794 148.953 70.4488 148.892 69.8996 147.58L46.2233 92.0204C45.8571 91.1661 46.2538 90.1898 47.1081 89.8236L63.5229 82.7757Z" fill="#DA2D2D"/>
<path d="M75.5134 91.8985C75.8185 91.0137 78.3204 89.7018 77.4661 89.3967L61.5395 83.6606L47.1384 89.7933C46.2841 90.1594 45.8874 91.1358 46.2535 91.9901L63.6142 132.783L75.5134 91.8985Z" fill="#C42D2D"/>
<path d="M80.8521 80.335L104.712 134.522C104.467 134.553 104.223 134.553 103.949 134.461L100.898 133.546L78.0146 81.5859L80.8521 80.335Z" fill="#FFC239"/>
<path d="M73.0724 147.428L48.8164 92.3559L51.6539 91.105L74.9031 143.858L73.0724 147.428Z" fill="#FFC239"/>
<path d="M58.1531 82.7757L41.6163 75.7277C40.762 75.3615 39.7857 75.7582 39.4195 76.6125L15.7432 132.203C15.194 133.515 16.4144 134.857 17.7569 134.461L37.4973 128.542C38.2601 128.298 39.1144 128.664 39.4805 129.396L48.7558 147.672C49.3965 148.953 51.2272 148.892 51.7764 147.58L75.4527 92.0204C75.8188 91.1661 75.4222 90.1898 74.5679 89.8236L58.1531 82.7757Z" fill="#DA2D2D"/>
<path d="M40.8838 80.335L17.0244 134.522C17.2685 134.553 17.5126 134.553 17.7872 134.461L20.8383 133.546L43.7213 81.5859L40.8838 80.335Z" fill="#FFC239"/>
<path d="M48.6331 147.428L72.8892 92.3559L70.0822 91.105L46.833 143.858L48.6331 147.428Z" fill="#FFC239"/>
<path opacity="0.5" d="M82.2571 76.612C81.891 75.7577 80.9146 75.3611 80.0603 75.7272L63.5235 82.7752L60.8386 83.9041L58.1536 82.7752L41.6168 75.7272C40.7625 75.3611 39.7862 75.7577 39.42 76.612L32.25 93.4234C32.7687 93.637 33.2263 93.8811 33.5924 94.2472C35.6672 96.3219 34.5688 102.272 37.0097 103.919C39.42 105.536 44.5153 102.272 47.2613 103.4C49.9462 104.499 51.2277 110.448 54.1262 110.998C56.9637 111.547 60.3809 106.574 63.4015 106.574C66.422 106.574 69.8392 111.547 72.6767 110.998C75.6058 110.418 76.8567 104.499 79.5417 103.4C82.2571 102.272 87.3524 105.536 89.7933 103.919C91.1052 103.034 91.4103 100.929 91.7154 98.8238L82.2571 76.612Z" fill="#C42D2D"/>
<path d="M104.804 59.3732C104.804 56.3832 109.778 52.9355 109.229 50.098C108.649 47.1689 102.73 45.918 101.631 43.2331C100.502 40.5176 103.767 35.4223 102.15 32.9814C100.502 30.5406 94.5528 31.6085 92.4781 29.5642C90.4034 27.4895 91.5018 21.5399 89.0609 19.8923C86.6506 18.2753 81.5553 21.5399 78.8093 20.411C76.1244 19.3126 74.8429 13.363 71.9444 12.8138C69.1069 12.2646 65.6897 17.2379 62.6691 17.2379C59.6791 17.2379 56.2313 12.2646 53.3939 12.8138C50.4648 13.3935 49.2139 19.3126 46.5289 20.411C43.8135 21.5399 38.7182 18.2753 36.2773 19.8923C33.8365 21.5399 34.9044 27.4895 32.8601 29.5642C30.8159 31.639 24.8358 30.5406 23.1882 32.9814C21.5711 35.3918 24.8358 40.4871 23.7069 43.2331C22.6085 45.918 16.6589 47.1994 16.1097 50.098C15.5605 52.9355 20.5338 56.3527 20.5338 59.3732C20.5338 62.3938 15.5605 65.811 16.1097 68.6485C16.6894 71.5775 22.6085 72.8285 23.7069 75.5134C24.8358 78.2289 21.5711 83.3242 23.1882 85.765C24.8358 88.2059 30.7854 87.138 32.8601 89.1822C34.9349 91.257 33.8365 97.2066 36.2773 98.8541C38.6877 100.471 43.783 97.2066 46.5289 98.3355C49.2139 99.4338 50.4953 105.383 53.3939 105.933C56.2313 106.482 59.6486 101.509 62.6691 101.509C65.6592 101.509 69.1069 106.482 71.9444 105.933C74.8734 105.353 76.1244 99.4338 78.8093 98.3355C81.5248 97.2066 86.6201 100.471 89.0609 98.8541C91.5018 97.2066 90.4339 91.257 92.4781 89.1822C94.5223 87.1075 100.502 88.2059 102.15 85.765C103.767 83.3547 100.502 78.2594 101.631 75.5134C102.73 72.8285 108.679 71.547 109.229 68.6485C109.778 65.811 104.804 62.3633 104.804 59.3732Z" fill="#EF3030"/>
<path d="M62.2418 92.2946C80.7269 92.2946 95.7121 77.3094 95.7121 58.8243C95.7121 40.3392 80.7269 25.354 62.2418 25.354C43.7566 25.354 28.7715 40.3392 28.7715 58.8243C28.7715 77.3094 43.7566 92.2946 62.2418 92.2946Z" fill="#FFD31D"/>
<path opacity="0.5" d="M87.7491 37.1616C91.4104 42.5315 93.5156 48.9998 93.5156 55.9562C93.5156 74.4458 78.5348 89.4265 60.0453 89.4265C49.8242 89.4265 40.671 84.8499 34.5078 77.6189C40.5184 86.467 50.6785 92.2945 62.2116 92.2945C80.7011 92.2945 95.6819 77.3138 95.6819 58.8242C95.7124 50.5558 92.7223 43.0197 87.7491 37.1616Z" fill="#FFEFAB"/>
<path d="M31.609 61.3872C31.609 42.8977 46.5898 27.9169 65.0793 27.9169C73.0426 27.9169 80.3346 30.6934 86.0706 35.331C79.999 29.1678 71.578 25.354 62.2418 25.354C43.7522 25.354 28.7715 40.3348 28.7715 58.8243C28.7715 69.3505 33.6532 78.7478 41.2504 84.8805C35.3008 78.8393 31.609 70.5709 31.609 61.3872Z" fill="#FFAB2E"/>
<path d="M66.7883 37.0701L71.3039 46.2233C71.8531 47.3217 72.921 48.115 74.1414 48.298L84.2404 49.7626C87.322 50.2202 88.573 54.0036 86.3152 56.1698L78.9926 63.3093C78.1078 64.1636 77.7112 65.4146 77.9247 66.635L79.6638 76.7035C80.1825 79.7851 76.9484 82.1345 74.2024 80.6699L65.1712 75.9103C64.0728 75.3306 62.7609 75.3306 61.6625 75.9103L52.6313 80.6699C49.8548 82.1345 46.6512 79.7851 47.1699 76.7035L48.909 66.635C49.1226 65.4146 48.726 64.1636 47.8411 63.3093L40.5186 56.1698C38.2913 54.0036 39.5117 50.1897 42.5933 49.7626L52.6924 48.298C53.9128 48.115 54.9806 47.3522 55.5298 46.2233L60.0454 37.0701C61.4184 34.2631 65.4153 34.2631 66.7883 37.0701Z" fill="white"/>
<path d="M28.924 88.2677C27.0933 89.0304 25.6593 90.4644 24.8965 92.2951C24.7745 92.5697 24.3779 92.5697 24.2558 92.2951C23.493 90.4644 22.0591 89.0304 20.2284 88.2677C19.9538 88.1456 19.9538 87.749 20.2284 87.6269C22.0591 86.8642 23.493 85.4301 24.2558 83.5995C24.3779 83.3249 24.7745 83.3249 24.8965 83.5995C25.6593 85.4301 27.0933 86.8642 28.924 87.6269C29.1986 87.749 29.1986 88.1456 28.924 88.2677Z" fill="white"/>
<path d="M97.7257 42.105C95.8951 42.8678 94.4611 44.3018 93.6983 46.1325C93.5762 46.4071 93.1796 46.4071 93.0576 46.1325C92.2948 44.3018 90.8608 42.8678 89.0302 42.105C88.7556 41.983 88.7556 41.5864 89.0302 41.4643C90.8608 40.7016 92.2948 39.2675 93.0576 37.4369C93.1796 37.1623 93.5762 37.1623 93.6983 37.4369C94.4611 39.2675 95.8951 40.7016 97.7257 41.4643C98.0003 41.5864 98.0003 42.0135 97.7257 42.105Z" fill="white"/>
<path d="M38.2299 75.4224C35.0263 76.7344 32.4633 79.2973 31.1514 82.5009C30.9378 82.9891 30.2361 82.9891 30.053 82.5009C28.741 79.2973 26.1782 76.7344 22.9745 75.4224C22.4864 75.2088 22.4864 74.5071 22.9745 74.324C26.1782 73.0121 28.741 70.4492 30.053 67.2455C30.2666 66.7574 30.9683 66.7574 31.1514 67.2455C32.4633 70.4492 35.0263 73.0121 38.2299 74.324C38.7181 74.5071 38.7181 75.2088 38.2299 75.4224Z" fill="white"/>
<path d="M101.205 25.69C98.0009 27.0019 95.438 29.5648 94.126 32.7685C93.9124 33.2566 93.2107 33.2566 93.0276 32.7685C91.7157 29.5648 89.1528 27.0019 85.9491 25.69C85.461 25.4764 85.461 24.7747 85.9491 24.5916C89.1528 23.2796 91.7157 20.7167 93.0276 17.5131C93.2412 17.0249 93.9429 17.0249 94.126 17.5131C95.438 20.7167 98.0009 23.2796 101.205 24.5916C101.693 24.8052 101.693 25.5069 101.205 25.69Z" fill="white"/>
</svg>
