<svg width="18" height="13" viewBox="0 0 18 13" fill="none" xmlns="http://www.w3.org/2000/svg">
<path d="M0.957375 2.656C1.34138 2.656 1.71471 2.624 2.07738 2.56C2.44004 2.496 2.76538 2.38933 3.05338 2.24C3.35204 2.09067 3.60271 1.89867 3.80538 1.664C4.01871 1.42933 4.15738 1.14133 4.22137 0.799999H5.70938V12H3.70938V4.096H0.957375V2.656ZM13.448 0.575999C14.248 0.575999 14.8987 0.762666 15.4 1.136C15.912 1.49867 16.3067 1.968 16.584 2.544C16.872 3.10933 17.064 3.73333 17.16 4.416C17.2667 5.09867 17.32 5.76 17.32 6.4C17.32 7.04 17.2667 7.70133 17.16 8.384C17.064 9.06667 16.872 9.696 16.584 10.272C16.3067 10.8373 15.912 11.3067 15.4 11.68C14.8987 12.0427 14.248 12.224 13.448 12.224C12.648 12.224 11.992 12.0427 11.48 11.68C10.9787 11.3067 10.584 10.8373 10.296 10.272C10.0187 9.696 9.82667 9.06667 9.72 8.384C9.624 7.70133 9.576 7.04 9.576 6.4C9.576 5.76 9.624 5.09867 9.72 4.416C9.82667 3.73333 10.0187 3.10933 10.296 2.544C10.584 1.968 10.9787 1.49867 11.48 1.136C11.992 0.762666 12.648 0.575999 13.448 0.575999ZM13.448 10.704C13.8427 10.704 14.1733 10.592 14.44 10.368C14.7067 10.1333 14.9147 9.824 15.064 9.44C15.224 9.04533 15.336 8.58667 15.4 8.064C15.464 7.54133 15.496 6.98667 15.496 6.4C15.496 5.81333 15.464 5.264 15.4 4.752C15.336 4.22933 15.224 3.77067 15.064 3.376C14.9147 2.98133 14.7067 2.672 14.44 2.448C14.1733 2.21333 13.8427 2.096 13.448 2.096C13.0427 2.096 12.7067 2.21333 12.44 2.448C12.184 2.672 11.976 2.98133 11.816 3.376C11.6667 3.77067 11.56 4.22933 11.496 4.752C11.432 5.264 11.4 5.81333 11.4 6.4C11.4 6.98667 11.432 7.54133 11.496 8.064C11.56 8.58667 11.6667 9.04533 11.816 9.44C11.976 9.824 12.184 10.1333 12.44 10.368C12.7067 10.592 13.0427 10.704 13.448 10.704Z" fill="white"/>
</svg>
