<svg width="10" height="13" viewBox="0 0 10 13" fill="none" xmlns="http://www.w3.org/2000/svg">
<path d="M4.9205 12.16C7.0965 12.16 9.0485 10.976 9.0485 8.72C9.0485 7.504 8.4885 6.448 7.0005 6.032C8.1045 5.52 8.4565 4.608 8.4565 3.744C8.4565 1.824 6.7445 0.688 4.8885 0.688C2.9685 0.688 1.3205 1.904 1.3205 4L3.2085 4.128C3.2245 3.12 3.8965 2.528 4.9205 2.528C5.8165 2.528 6.5365 2.992 6.5365 3.984C6.5365 4.848 6.2965 5.408 4.4245 5.408V6.928C5.6725 6.928 7.1285 6.976 7.1285 8.56C7.1285 9.776 6.1045 10.32 4.9525 10.32C3.6565 10.32 2.6805 9.632 2.6805 8.368L0.7765 8.48C0.7765 10.944 2.6965 12.16 4.9205 12.16Z" fill="white"/>
</svg>
