<svg width="9" height="13" viewBox="0 0 9 13" fill="none" xmlns="http://www.w3.org/2000/svg">
<path d="M2.02269 0.799999H7.81469V2.432H3.38269L2.80669 5.28L2.83869 5.312C3.08402 5.03467 3.39335 4.82667 3.76669 4.688C4.15069 4.53867 4.52935 4.464 4.90269 4.464C5.45735 4.464 5.95335 4.56 6.39069 4.752C6.82802 4.93333 7.19602 5.19467 7.49469 5.536C7.79335 5.86667 8.01735 6.26133 8.16669 6.72C8.32669 7.17867 8.40669 7.67467 8.40669 8.208C8.40669 8.656 8.33202 9.12 8.18269 9.6C8.04402 10.0693 7.81469 10.5013 7.49469 10.896C7.18535 11.28 6.78535 11.6 6.29469 11.856C5.80402 12.1013 5.21735 12.224 4.53469 12.224C3.99069 12.224 3.48402 12.1493 3.01469 12C2.55602 11.8613 2.15069 11.648 1.79869 11.36C1.44669 11.072 1.16402 10.72 0.950688 10.304C0.748021 9.87733 0.636021 9.38133 0.614688 8.816H2.43869C2.49202 9.424 2.70002 9.89333 3.06269 10.224C3.42535 10.544 3.90535 10.704 4.50269 10.704C4.88669 10.704 5.21202 10.64 5.47869 10.512C5.74535 10.384 5.95869 10.208 6.11869 9.984C6.28935 9.76 6.40669 9.49867 6.47069 9.2C6.54535 8.90133 6.58269 8.58133 6.58269 8.24C6.58269 7.93067 6.54002 7.63733 6.45469 7.36C6.36935 7.072 6.24135 6.82133 6.07069 6.608C5.90002 6.39467 5.67602 6.224 5.39869 6.096C5.13202 5.968 4.81735 5.904 4.45469 5.904C4.07069 5.904 3.70802 5.97867 3.36669 6.128C3.03602 6.26667 2.79602 6.53333 2.64669 6.928H0.822688L2.02269 0.799999Z" fill="white"/>
</svg>
