<svg width="9" height="13" viewBox="0 0 9 13" fill="none" xmlns="http://www.w3.org/2000/svg">
<path d="M6.37469 3.632C6.33202 3.17333 6.16669 2.80533 5.87869 2.528C5.60135 2.24 5.22269 2.096 4.74269 2.096C4.41202 2.096 4.12402 2.16 3.87869 2.288C3.64402 2.40533 3.44135 2.56533 3.27069 2.768C3.11069 2.97067 2.97735 3.20533 2.87069 3.472C2.77469 3.728 2.69469 4 2.63069 4.288C2.56669 4.576 2.51869 4.864 2.48669 5.152C2.46535 5.42933 2.44402 5.69067 2.42269 5.936L2.45469 5.968C2.70002 5.52 3.03602 5.18933 3.46269 4.976C3.90002 4.752 4.36935 4.64 4.87069 4.64C5.42535 4.64 5.92135 4.736 6.35869 4.928C6.79602 5.12 7.16402 5.38667 7.46269 5.728C7.77202 6.05867 8.00669 6.45333 8.16669 6.912C8.32669 7.37067 8.40669 7.86667 8.40669 8.4C8.40669 8.944 8.31602 9.45067 8.13469 9.92C7.96402 10.3787 7.71335 10.784 7.38269 11.136C7.05202 11.4773 6.65735 11.744 6.19869 11.936C5.74002 12.128 5.23335 12.224 4.67869 12.224C3.85735 12.224 3.18002 12.0747 2.64669 11.776C2.12402 11.4667 1.70802 11.0507 1.39869 10.528C1.10002 9.99467 0.892021 9.376 0.774688 8.672C0.657354 7.95733 0.598688 7.18933 0.598688 6.368C0.598688 5.696 0.668021 5.01867 0.806688 4.336C0.956021 3.65333 1.19602 3.03467 1.52669 2.48C1.85735 1.91467 2.28935 1.456 2.82269 1.104C3.36669 0.751999 4.03335 0.575999 4.82269 0.575999C5.27069 0.575999 5.69202 0.650666 6.08669 0.799999C6.48135 0.949333 6.82802 1.15733 7.12669 1.424C7.43602 1.69067 7.68669 2.01067 7.87869 2.384C8.07069 2.75733 8.17735 3.17333 8.19869 3.632H6.37469ZM4.61469 10.704C4.94535 10.704 5.23335 10.64 5.47869 10.512C5.72402 10.3733 5.92669 10.1973 6.08669 9.984C6.25735 9.77067 6.38002 9.52533 6.45469 9.248C6.54002 8.96 6.58269 8.66667 6.58269 8.368C6.58269 8.06933 6.54002 7.78133 6.45469 7.504C6.38002 7.22667 6.25735 6.98667 6.08669 6.784C5.92669 6.57067 5.72402 6.4 5.47869 6.272C5.23335 6.144 4.94535 6.08 4.61469 6.08C4.28402 6.08 3.99069 6.144 3.73469 6.272C3.48935 6.38933 3.28135 6.55467 3.11069 6.768C2.94002 6.97067 2.81202 7.21067 2.72669 7.488C2.64135 7.76533 2.59869 8.05867 2.59869 8.368C2.59869 8.67733 2.64135 8.97067 2.72669 9.248C2.81202 9.52533 2.94002 9.776 3.11069 10C3.28135 10.2133 3.48935 10.384 3.73469 10.512C3.99069 10.64 4.28402 10.704 4.61469 10.704Z" fill="white"/>
</svg>
