<svg width="9" height="13" viewBox="0 0 9 13" fill="none" xmlns="http://www.w3.org/2000/svg">
<path d="M4.50269 2.016C4.01202 2.016 3.59602 2.16533 3.25469 2.464C2.91335 2.752 2.74269 3.17333 2.74269 3.728C2.74269 4.26133 2.90802 4.672 3.23869 4.96C3.56935 5.23733 3.99069 5.376 4.50269 5.376C5.01469 5.376 5.43602 5.23733 5.76669 4.96C6.09735 4.672 6.26269 4.26133 6.26269 3.728C6.26269 3.17333 6.09202 2.752 5.75069 2.464C5.40935 2.16533 4.99335 2.016 4.50269 2.016ZM4.50269 12.224C3.93735 12.224 3.40935 12.144 2.91869 11.984C2.43869 11.824 2.02269 11.5947 1.67069 11.296C1.31869 10.9867 1.04135 10.6133 0.838688 10.176C0.646688 9.73867 0.550688 9.248 0.550688 8.704C0.550688 8 0.732021 7.408 1.09469 6.928C1.46802 6.448 1.96935 6.128 2.59869 5.968V5.936C2.08669 5.744 1.69202 5.45067 1.41469 5.056C1.14802 4.65067 1.01469 4.176 1.01469 3.632C1.01469 2.672 1.31335 1.92533 1.91069 1.392C2.51869 0.847999 3.38269 0.575999 4.50269 0.575999C5.62269 0.575999 6.48135 0.847999 7.07869 1.392C7.68669 1.92533 7.99069 2.672 7.99069 3.632C7.99069 4.176 7.85202 4.65067 7.57469 5.056C7.30802 5.45067 6.91869 5.744 6.40669 5.936V5.968C7.03602 6.128 7.53202 6.448 7.89469 6.928C8.26802 7.408 8.45469 8 8.45469 8.704C8.45469 9.248 8.35335 9.73867 8.15069 10.176C7.95869 10.6133 7.68669 10.9867 7.33469 11.296C6.98269 11.5947 6.56135 11.824 6.07069 11.984C5.59069 12.144 5.06802 12.224 4.50269 12.224ZM4.50269 10.784C5.11069 10.784 5.61735 10.6027 6.02269 10.24C6.42802 9.87733 6.63069 9.36533 6.63069 8.704C6.63069 8.08533 6.42802 7.60533 6.02269 7.264C5.61735 6.912 5.11069 6.736 4.50269 6.736C3.89469 6.736 3.38802 6.912 2.98269 7.264C2.57735 7.60533 2.37469 8.08533 2.37469 8.704C2.37469 9.36533 2.57735 9.87733 2.98269 10.24C3.38802 10.6027 3.89469 10.784 4.50269 10.784Z" fill="white"/>
</svg>
