<svg width="9" height="13" viewBox="0 0 9 13" fill="none" xmlns="http://www.w3.org/2000/svg">
<path d="M2.63069 9.168C2.67335 9.62667 2.83335 10 3.11069 10.288C3.39869 10.5653 3.78269 10.704 4.26269 10.704C4.75335 10.704 5.14269 10.576 5.43069 10.32C5.72935 10.0533 5.95869 9.728 6.11869 9.344C6.27869 8.94933 6.38535 8.53333 6.43869 8.096C6.50269 7.648 6.55069 7.23733 6.58269 6.864L6.55069 6.832C6.30535 7.26933 5.96935 7.60533 5.54269 7.84C5.11602 8.064 4.64669 8.176 4.13469 8.176C3.60135 8.176 3.11602 8.08533 2.67869 7.904C2.25202 7.72267 1.88402 7.472 1.57469 7.152C1.26535 6.82133 1.02535 6.42667 0.854688 5.968C0.684021 5.49867 0.598688 4.976 0.598688 4.4C0.598688 3.856 0.684021 3.35467 0.854688 2.896C1.02535 2.42667 1.27602 2.02133 1.60669 1.68C1.93735 1.328 2.34269 1.056 2.82269 0.863999C3.30269 0.671999 3.84669 0.575999 4.45469 0.575999C5.24402 0.575999 5.89469 0.730666 6.40669 1.04C6.91869 1.33867 7.31869 1.75467 7.60669 2.288C7.90535 2.81067 8.11335 3.42933 8.23069 4.144C8.34802 4.85867 8.40669 5.62133 8.40669 6.432C8.40669 7.104 8.33202 7.78133 8.18269 8.464C8.04402 9.14667 7.80935 9.77067 7.47869 10.336C7.14802 10.8907 6.71069 11.344 6.16669 11.696C5.63335 12.048 4.97202 12.224 4.18269 12.224C3.73469 12.224 3.31335 12.1493 2.91869 12C2.52402 11.8507 2.17202 11.6427 1.86269 11.376C1.56402 11.1093 1.31869 10.7893 1.12669 10.416C0.934688 10.0427 0.828021 9.62667 0.806688 9.168H2.63069ZM4.37469 2.096C4.04402 2.096 3.75602 2.16 3.51069 2.288C3.26535 2.40533 3.06269 2.57067 2.90269 2.784C2.74269 2.99733 2.62002 3.24267 2.53469 3.52C2.46002 3.79733 2.42269 4.08533 2.42269 4.384C2.42269 4.69333 2.46002 4.992 2.53469 5.28C2.62002 5.55733 2.74269 5.80267 2.90269 6.016C3.06269 6.22933 3.26535 6.40533 3.51069 6.544C3.75602 6.672 4.04402 6.736 4.37469 6.736C4.71602 6.736 5.01469 6.672 5.27069 6.544C5.52669 6.416 5.73469 6.24533 5.89469 6.032C6.06535 5.808 6.19335 5.55733 6.27869 5.28C6.36402 4.992 6.40669 4.69333 6.40669 4.384C6.40669 4.08533 6.36402 3.79733 6.27869 3.52C6.19335 3.24267 6.06535 3.00267 5.89469 2.8C5.73469 2.58667 5.52669 2.416 5.27069 2.288C5.01469 2.16 4.71602 2.096 4.37469 2.096Z" fill="white"/>
</svg>
