<svg width="12" height="13" viewBox="0 0 12 13" fill="none" xmlns="http://www.w3.org/2000/svg">
<path d="M7.08104 8.46446L8.15452 10.3238C8.36162 10.6825 8.23872 11.1412 7.88 11.3483C7.52128 11.5554 7.06258 11.4325 6.85548 11.0738L5.52871 8.77576M9.72814 2.91542L9.91115 2.23241M10.7281 4.64748L11.4111 4.83049M4.05002 9.08049L9.35938 7.86475C10.0152 7.71458 10.3386 6.97265 10.0022 6.38998L7.85616 2.67293C7.51976 2.09026 6.71553 1.99936 6.25756 2.49224L2.55002 6.48242L4.05002 9.08049ZM2.67503 6.69891L3.92503 8.86398C4.13214 9.2227 4.00924 9.68139 3.65052 9.8885C3.2918 10.0956 2.8331 9.9727 2.626 9.61398L1.376 7.44891C1.16889 7.09019 1.2918 6.6315 1.65052 6.42439C2.00924 6.21729 2.46793 6.34019 2.67503 6.69891Z" stroke="#027948" stroke-linecap="round" stroke-linejoin="round"/>
</svg>
