<svg width="64" height="64" viewBox="0 0 64 64" fill="none" xmlns="http://www.w3.org/2000/svg">
<circle cx="32" cy="32" r="31.5" stroke="#211D1E"/>
<path d="M23.5757 40.5757C23.3414 40.8101 23.3414 41.1899 23.5757 41.4243C23.8101 41.6586 24.1899 41.6586 24.4243 41.4243L23.5757 40.5757ZM41.5706 24.0294C41.5706 23.6981 41.3019 23.4294 40.9706 23.4294L35.5706 23.4294C35.2392 23.4294 34.9706 23.6981 34.9706 24.0294C34.9706 24.3608 35.2392 24.6294 35.5706 24.6294L40.3706 24.6294L40.3706 29.4294C40.3706 29.7608 40.6392 30.0294 40.9706 30.0294C41.3019 30.0294 41.5706 29.7608 41.5706 29.4294L41.5706 24.0294ZM24.4243 41.4243L41.3948 24.4537L40.5463 23.6052L23.5757 40.5757L24.4243 41.4243Z" fill="#211D1E"/>
</svg>
