<svg width="19" height="19" viewBox="0 0 19 19" fill="none" xmlns="http://www.w3.org/2000/svg">
<path d="M0.575736 17.5757C0.341421 17.8101 0.341421 18.1899 0.575736 18.4243C0.810051 18.6586 1.18995 18.6586 1.42426 18.4243L0.575736 17.5757ZM18.5706 1.02943C18.5706 0.698064 18.3019 0.429434 17.9706 0.429434L12.5706 0.429436C12.2392 0.429436 11.9706 0.698064 11.9706 1.02944C11.9706 1.36081 12.2392 1.62944 12.5706 1.62944L17.3706 1.62943L17.3706 6.42944C17.3706 6.76081 17.6392 7.02943 17.9706 7.02944C18.3019 7.02943 18.5706 6.76081 18.5706 6.42944L18.5706 1.02943ZM1.42426 18.4243L18.3948 1.4537L17.5463 0.605171L0.575736 17.5757L1.42426 18.4243Z" fill="#211D1E"/>
</svg>
