<svg width="16" height="16" viewBox="0 0 16 16" fill="none" xmlns="http://www.w3.org/2000/svg">
<path d="M6.67725 0.875C6.07912 0.875 5.52085 1.19578 5.21973 1.71216L4.39575 3.125H2.9375C1.5935 3.125 0.5 4.2185 0.5 5.5625V12.6875C0.5 14.0315 1.5935 15.125 2.9375 15.125H13.0625C14.4065 15.125 15.5 14.0315 15.5 12.6875V5.5625C15.5 4.2185 14.4065 3.125 13.0625 3.125H11.6042L10.7803 1.71216C10.4791 1.19578 9.92088 0.875 9.32275 0.875H6.67725ZM8 5.375C9.86075 5.375 11.375 6.88888 11.375 8.75C11.375 10.6111 9.86075 12.125 8 12.125C6.13925 12.125 4.625 10.6111 4.625 8.75C4.625 6.88888 6.13925 5.375 8 5.375ZM8 6.5C7.40326 6.5 6.83097 6.73705 6.40901 7.15901C5.98705 7.58097 5.75 8.15326 5.75 8.75C5.75 9.34674 5.98705 9.91903 6.40901 10.341C6.83097 10.7629 7.40326 11 8 11C8.59674 11 9.16903 10.7629 9.59099 10.341C10.0129 9.91903 10.25 9.34674 10.25 8.75C10.25 8.15326 10.0129 7.58097 9.59099 7.15901C9.16903 6.73705 8.59674 6.5 8 6.5Z" fill="white"/>
</svg>
