<svg width="22" height="22" viewBox="0 0 22 22" fill="none" xmlns="http://www.w3.org/2000/svg">
<path d="M17.9783 9.23377C17.7468 9.23377 17.5249 9.32572 17.3612 9.48939C17.1975 9.65305 17.1056 9.87504 17.1056 10.1065V16.2156C17.1056 16.447 17.0136 16.669 16.85 16.8327C16.6863 16.9964 16.4643 17.0883 16.2328 17.0883H4.01467C3.7832 17.0883 3.56122 16.9964 3.39755 16.8327C3.23389 16.669 3.14194 16.447 3.14194 16.2156V9.23377C3.14194 9.00231 3.23389 8.78033 3.39755 8.61666C3.56122 8.45299 3.7832 8.36104 4.01467 8.36104H5.76012C5.95043 8.37098 6.13877 8.31834 6.29635 8.21118C6.45394 8.10402 6.57212 7.94823 6.63285 7.76759L7.10412 6.33632C7.16267 6.16297 7.27421 6.01242 7.42299 5.90592C7.57177 5.79943 7.75025 5.74239 7.93321 5.74286H12.7419C12.9734 5.74286 13.1954 5.65091 13.359 5.48725C13.5227 5.32358 13.6147 5.1016 13.6147 4.87013C13.6147 4.63867 13.5227 4.41669 13.359 4.25302C13.1954 4.08936 12.9734 3.99741 12.7419 3.99741H7.88957C7.34111 3.99843 6.80681 4.17168 6.3621 4.49268C5.91738 4.81369 5.58471 5.26626 5.41103 5.7865L5.13176 6.65923H4.01467C3.32028 6.65923 2.65434 6.93507 2.16333 7.42607C1.67233 7.91708 1.39648 8.58302 1.39648 9.27741V16.2592C1.39648 16.9536 1.67233 17.6196 2.16333 18.1106C2.65434 18.6016 3.32028 18.8774 4.01467 18.8774H16.2328C16.9272 18.8774 17.5932 18.6016 18.0842 18.1106C18.5752 17.6196 18.851 16.9536 18.851 16.2592V10.1501C18.8569 10.0319 18.8388 9.91371 18.7976 9.80274C18.7564 9.69177 18.693 9.59034 18.6114 9.50462C18.5297 9.4189 18.4315 9.35068 18.3227 9.30412C18.2138 9.25756 18.0967 9.23362 17.9783 9.23377V9.23377ZM10.1238 8.36104C9.43332 8.36104 8.75839 8.56578 8.18431 8.94937C7.61023 9.33295 7.1628 9.87816 6.89858 10.516C6.63436 11.1539 6.56523 11.8558 6.69992 12.533C6.83462 13.2102 7.1671 13.8322 7.65531 14.3204C8.14352 14.8086 8.76554 15.1411 9.44271 15.2758C10.1199 15.4105 10.8218 15.3413 11.4597 15.0771C12.0976 14.8129 12.6428 14.3655 13.0263 13.7914C13.4099 13.2173 13.6147 12.5424 13.6147 11.852C13.6147 10.9261 13.2469 10.0382 12.5922 9.38351C11.9375 8.72883 11.0496 8.36104 10.1238 8.36104V8.36104ZM10.1238 13.5974C9.77854 13.5974 9.44107 13.495 9.15403 13.3032C8.867 13.1115 8.64328 12.8388 8.51117 12.5199C8.37906 12.201 8.34449 11.85 8.41184 11.5114C8.47919 11.1728 8.64543 10.8618 8.88953 10.6177C9.13364 10.3736 9.44465 10.2074 9.78324 10.14C10.1218 10.0727 10.4728 10.1073 10.7917 10.2394C11.1107 10.3715 11.3833 10.5952 11.575 10.8822C11.7668 11.1693 11.8692 11.5067 11.8692 11.852C11.8692 12.3149 11.6853 12.7588 11.358 13.0862C11.0306 13.4135 10.5867 13.5974 10.1238 13.5974ZM19.7238 3.99741H18.851V3.12468C18.851 2.89322 18.7591 2.67124 18.5954 2.50757C18.4317 2.3439 18.2098 2.25195 17.9783 2.25195C17.7468 2.25195 17.5249 2.3439 17.3612 2.50757C17.1975 2.67124 17.1056 2.89322 17.1056 3.12468V3.99741H16.2328C16.0014 3.99741 15.7794 4.08936 15.6157 4.25302C15.4521 4.41669 15.3601 4.63867 15.3601 4.87013C15.3601 5.1016 15.4521 5.32358 15.6157 5.48725C15.7794 5.65091 16.0014 5.74286 16.2328 5.74286H17.1056V6.61559C17.1056 6.84705 17.1975 7.06903 17.3612 7.2327C17.5249 7.39637 17.7468 7.48832 17.9783 7.48832C18.2098 7.48832 18.4317 7.39637 18.5954 7.2327C18.7591 7.06903 18.851 6.84705 18.851 6.61559V5.74286H19.7238C19.9552 5.74286 20.1772 5.65091 20.3409 5.48725C20.5045 5.32358 20.5965 5.1016 20.5965 4.87013C20.5965 4.63867 20.5045 4.41669 20.3409 4.25302C20.1772 4.08936 19.9552 3.99741 19.7238 3.99741Z" fill="white"/>
</svg>
