<svg width="20" height="20" viewBox="0 0 20 20" fill="none" xmlns="http://www.w3.org/2000/svg">
<path d="M13.334 3.33366H15.0007C15.4427 3.33366 15.8666 3.50925 16.1792 3.82181C16.4917 4.13437 16.6673 4.5583 16.6673 5.00033V16.667C16.6673 17.109 16.4917 17.5329 16.1792 17.8455C15.8666 18.1581 15.4427 18.3337 15.0007 18.3337H5.00065C4.55862 18.3337 4.1347 18.1581 3.82214 17.8455C3.50958 17.5329 3.33398 17.109 3.33398 16.667V5.00033C3.33398 4.5583 3.50958 4.13437 3.82214 3.82181C4.1347 3.50925 4.55862 3.33366 5.00065 3.33366H6.66732M7.50065 1.66699H12.5007C12.9609 1.66699 13.334 2.04009 13.334 2.50033V4.16699C13.334 4.62723 12.9609 5.00033 12.5007 5.00033H7.50065C7.04041 5.00033 6.66732 4.62723 6.66732 4.16699V2.50033C6.66732 2.04009 7.04041 1.66699 7.50065 1.66699Z" stroke="#98A2B3" stroke-width="1.67" stroke-linecap="round" stroke-linejoin="round"/>
</svg>
