<svg width="79" height="80" viewBox="0 0 79 80" fill="none" xmlns="http://www.w3.org/2000/svg">
<rect x="5.64844" y="6.60742" width="67.4595" height="67.4595" rx="33.7297" fill="#FEF0C7"/>
<path fill-rule="evenodd" clip-rule="evenodd" d="M26.3796 40.3366C26.3796 33.1569 32.1999 27.3366 39.3796 27.3366C46.5593 27.3366 52.3796 33.1569 52.3796 40.3366C52.3796 47.5163 46.5593 53.3366 39.3796 53.3366C32.1999 53.3366 26.3796 47.5163 26.3796 40.3366ZM39.3796 25.2285C31.0356 25.2285 24.2715 31.9926 24.2715 40.3366C24.2715 48.6806 31.0356 55.4447 39.3796 55.4447C47.7236 55.4447 54.4877 48.6806 54.4877 40.3366C54.4877 31.9926 47.7236 25.2285 39.3796 25.2285ZM39.3796 30.8501C38.7975 30.8501 38.3255 31.3221 38.3255 31.9042V37.7301C37.2954 38.1471 36.5688 39.157 36.5688 40.3366C36.5688 41.889 37.8272 43.1474 39.3796 43.1474C40.932 43.1474 42.1904 41.889 42.1904 40.3366C42.1904 39.157 41.4637 38.1471 40.4336 37.7301V31.9042C40.4336 31.3221 39.9617 30.8501 39.3796 30.8501Z" fill="#DC6803"/>
<rect x="5.64844" y="6.60742" width="67.4595" height="67.4595" rx="33.7297" stroke="#FFFAEB" stroke-width="11.2432"/>
</svg>
