<svg width="17" height="16" viewBox="0 0 17 16" fill="none" xmlns="http://www.w3.org/2000/svg">
<g clip-path="url(#clip0_10355_15897)">
<path d="M12.5007 5.33366H13.1673C13.8746 5.33366 14.5528 5.61461 15.0529 6.11471C15.553 6.6148 15.834 7.29308 15.834 8.00033C15.834 8.70757 15.553 9.38585 15.0529 9.88594C14.5528 10.386 13.8746 10.667 13.1673 10.667H12.5007M12.5007 5.33366H1.83398V11.3337C1.83398 12.0409 2.11494 12.7192 2.61503 13.2193C3.11513 13.7194 3.79341 14.0003 4.50065 14.0003H9.83398C10.5412 14.0003 11.2195 13.7194 11.7196 13.2193C12.2197 12.7192 12.5007 12.0409 12.5007 11.3337V5.33366ZM4.50065 0.666992V2.66699M7.16732 0.666992V2.66699M9.83398 0.666992V2.66699" stroke="white" stroke-linecap="round" stroke-linejoin="round"/>
</g>
<defs>
<clipPath id="clip0_10355_15897">
<rect width="16" height="16" fill="white" transform="translate(0.5)"/>
</clipPath>
</defs>
</svg>
