<svg width="20" height="20" viewBox="0 0 20 20" fill="none" xmlns="http://www.w3.org/2000/svg">
<path d="M4.16797 12.5003H3.33464C2.89261 12.5003 2.46868 12.3247 2.15612 12.0122C1.84356 11.6996 1.66797 11.2757 1.66797 10.8337V3.33366C1.66797 2.89163 1.84356 2.46771 2.15612 2.15515C2.46868 1.84259 2.89261 1.66699 3.33464 1.66699H10.8346C11.2767 1.66699 11.7006 1.84259 12.0131 2.15515C12.3257 2.46771 12.5013 2.89163 12.5013 3.33366V4.16699M9.16797 7.50033H16.668C17.5884 7.50033 18.3346 8.24652 18.3346 9.16699V16.667C18.3346 17.5875 17.5884 18.3337 16.668 18.3337H9.16797C8.24749 18.3337 7.5013 17.5875 7.5013 16.667V9.16699C7.5013 8.24652 8.24749 7.50033 9.16797 7.50033Z" stroke="#667085" stroke-width="1.66667" stroke-linecap="round" stroke-linejoin="round"/>
</svg>
