<svg width="18" height="20" viewBox="0 0 18 20" fill="none" xmlns="http://www.w3.org/2000/svg">
<path d="M1.5 5.00033H3.16667M3.16667 5.00033H16.5M3.16667 5.00033V16.667C3.16667 17.109 3.34226 17.5329 3.65482 17.8455C3.96738 18.1581 4.39131 18.3337 4.83333 18.3337H13.1667C13.6087 18.3337 14.0326 18.1581 14.3452 17.8455C14.6577 17.5329 14.8333 17.109 14.8333 16.667V5.00033H3.16667ZM5.66667 5.00033V3.33366C5.66667 2.89163 5.84226 2.46771 6.15482 2.15515C6.46738 1.84259 6.89131 1.66699 7.33333 1.66699H10.6667C11.1087 1.66699 11.5326 1.84259 11.8452 2.15515C12.1577 2.46771 12.3333 2.89163 12.3333 3.33366V5.00033M7.33333 9.16699V14.167M10.6667 9.16699V14.167" stroke="#868E96" stroke-width="1.5" stroke-linecap="round" stroke-linejoin="round"/>
</svg>
