<svg width="20" height="20" viewBox="0 0 20 20" fill="none" xmlns="http://www.w3.org/2000/svg">
<path fill-rule="evenodd" clip-rule="evenodd" d="M9.40805 2.5H6.76989C5.24033 2.5 3.90705 3.54099 3.53608 5.02488L2.18502 10.4291C1.92204 11.481 2.71764 12.5 3.80193 12.5H7.9173L6.82825 14.3669C6.01808 15.7558 7.0199 17.5 8.62779 17.5H9.58397L12.8075 11.8588C12.8795 11.7329 12.9173 11.5904 12.9173 11.4454V4.61265C12.9173 4.33403 12.778 4.07383 12.5462 3.91928L11.257 3.05983C10.7095 2.69479 10.0661 2.5 9.40805 2.5ZM16.6673 12.5H15.834C14.9135 12.5 14.1673 11.7538 14.1673 10.8333V5C14.1673 4.07953 14.9135 3.33333 15.834 3.33333H16.6673C17.5878 3.33333 18.334 4.07953 18.334 5V10.8333C18.334 11.7538 17.5878 12.5 16.6673 12.5Z" fill="#F31F28"/>
</svg>
