<svg width="20" height="20" viewBox="0 0 20 20" fill="none" xmlns="http://www.w3.org/2000/svg">
<path d="M15.001 12.5H16.6676C17.5881 12.5 18.3343 11.7538 18.3343 10.8333V5C18.3343 4.07953 17.5881 3.33333 16.6676 3.33333H15.001C14.0805 3.33333 13.3343 4.07953 13.3343 5V10.8333C13.3343 11.7538 14.0805 12.5 15.001 12.5Z" stroke="#667085" stroke-width="1.5" stroke-linecap="round" stroke-linejoin="round"/>
<path d="M6.77021 2.5H9.82504C10.4831 2.5 11.1265 2.69479 11.674 3.05983L12.9632 3.91928C13.195 4.07383 13.3343 4.33403 13.3343 4.61265V11.4454C13.3343 11.5904 13.2964 11.7329 13.2245 11.8588L10.001 17.5H8.8937C7.22976 17.5 6.23727 15.6455 7.16026 14.261L8.33429 12.5H3.80225C2.71797 12.5 1.92237 11.481 2.18535 10.4291L3.53641 5.02488C3.90738 3.54099 5.24066 2.5 6.77021 2.5Z" stroke="#667085" stroke-width="1.5" stroke-linecap="round" stroke-linejoin="round"/>
</svg>
