<svg width="20" height="21" viewBox="0 0 20 21" fill="none" xmlns="http://www.w3.org/2000/svg">
<path fill-rule="evenodd" clip-rule="evenodd" d="M9.9987 1.49805C10.3439 1.49805 10.6237 1.77787 10.6237 2.12305V3.21969C12.2816 3.51488 13.5404 4.96363 13.5404 6.70638C13.5404 7.05156 13.2605 7.33138 12.9154 7.33138C12.5702 7.33138 12.2904 7.05156 12.2904 6.70638C12.2904 5.6574 11.5856 4.77303 10.6237 4.50098V9.05302C12.2816 9.34821 13.5404 10.797 13.5404 12.5397C13.5404 14.2825 12.2816 15.7312 10.6237 16.0264V17.123C10.6237 17.4682 10.3439 17.748 9.9987 17.748C9.65352 17.748 9.3737 17.4682 9.3737 17.123V16.0264C7.71577 15.7312 6.45703 14.2825 6.45703 12.5397C6.45703 12.1945 6.73685 11.9147 7.08203 11.9147C7.42721 11.9147 7.70703 12.1945 7.70703 12.5397C7.70703 13.5887 8.41182 14.4731 9.3737 14.7451V10.1931C7.71577 9.89788 6.45703 8.44913 6.45703 6.70638C6.45703 4.96363 7.71577 3.51488 9.3737 3.21969V2.12305C9.3737 1.77787 9.65352 1.49805 9.9987 1.49805ZM9.3737 4.50098C8.41182 4.77303 7.70703 5.6574 7.70703 6.70638C7.70703 7.75536 8.41182 8.63973 9.3737 8.91178V4.50098ZM10.6237 10.3343V14.7451C11.5856 14.4731 12.2904 13.5887 12.2904 12.5397C12.2904 11.4907 11.5856 10.6064 10.6237 10.3343Z" fill="#28303F"/>
</svg>
