<svg width="66" height="66" viewBox="0 0 66 66" fill="none" xmlns="http://www.w3.org/2000/svg">
<rect x="5" y="5" width="56" height="56" rx="28" fill="#FFF3D1"/>
<path d="M34.166 21.334H25.9993C25.3805 21.334 24.787 21.5798 24.3494 22.0174C23.9118 22.455 23.666 23.0485 23.666 23.6673V42.334C23.666 42.9528 23.9118 43.5463 24.3494 43.9839C24.787 44.4215 25.3805 44.6673 25.9993 44.6673H39.9994C40.6182 44.6673 41.2117 44.4215 41.6493 43.9839C42.0869 43.5463 42.3327 42.9528 42.3327 42.334V29.5007M34.166 21.334L42.3327 29.5007M34.166 21.334V29.5007H42.3327" stroke="#DEAC00" stroke-width="2.33333" stroke-linecap="round" stroke-linejoin="round"/>
<rect x="5" y="5" width="56" height="56" rx="28" stroke="#FDF8EA" stroke-width="10"/>
</svg>
