<svg width="20" height="20" viewBox="0 0 20 20" fill="none" xmlns="http://www.w3.org/2000/svg">
<path d="M9.16602 3.3332H3.33268C2.89065 3.3332 2.46673 3.50879 2.15417 3.82135C1.84161 4.13391 1.66602 4.55784 1.66602 4.99986V16.6665C1.66602 17.1086 1.84161 17.5325 2.15417 17.845C2.46673 18.1576 2.89065 18.3332 3.33268 18.3332H14.9993C15.4414 18.3332 15.8653 18.1576 16.1779 17.845C16.4904 17.5325 16.666 17.1086 16.666 16.6665V10.8332M15.416 2.0832C15.7475 1.75168 16.1972 1.56543 16.666 1.56543C17.1349 1.56543 17.5845 1.75168 17.916 2.0832C18.2475 2.41472 18.4338 2.86436 18.4338 3.3332C18.4338 3.80204 18.2475 4.25168 17.916 4.5832L9.99935 12.4999L6.66602 13.3332L7.49935 9.99986L15.416 2.0832Z" stroke="#868E96" stroke-width="1.5" stroke-linecap="round" stroke-linejoin="round"/>
</svg>
