<svg width="160" height="159" viewBox="0 0 160 159" fill="none" xmlns="http://www.w3.org/2000/svg">
<path fill-rule="evenodd" clip-rule="evenodd" d="M157.188 71.8495L157.187 143.33C157.187 148.451 152.984 152.627 147.831 152.627H12.1687C7.01562 152.627 2.8125 148.45 2.8125 143.329V71.8495C2.8125 68.9927 3.97156 66.5344 6.18 64.7059L74.0116 8.54726C77.5128 5.64831 82.4875 5.64831 85.9891 8.54726L153.82 64.7059C156.028 66.5344 157.188 68.993 157.188 71.8495Z" fill="#C2D9D3"/>
<path fill-rule="evenodd" clip-rule="evenodd" d="M137.94 134.726H22.0586V43.5085C22.0586 41.8256 22.6527 40.3776 23.837 39.1745C32.8764 29.9904 38.7814 23.9906 41.5502 21.1771C42.7683 19.9399 44.267 19.3135 46.0092 19.3135H134.821C136.539 19.3135 137.94 20.7057 137.94 22.4127V134.726Z" fill="#EFF4F7"/>
<path fill-rule="evenodd" clip-rule="evenodd" d="M40.0466 40.5059C41.8832 40.5059 43.3848 39.0152 43.3848 37.1883V19.8682C42.7173 20.1768 42.1048 20.6135 41.5501 21.1768L23.837 39.1742C23.4285 39.5891 23.0901 40.0332 22.8223 40.5059H40.0466Z" fill="#E2E3E3"/>
<path fill-rule="evenodd" clip-rule="evenodd" d="M113.958 33.9597C115.15 33.279 116.671 33.6877 117.356 34.8721C118.041 36.0565 117.63 37.5686 116.438 38.2493L109.604 42.1703C108.412 42.851 106.89 42.4423 106.205 41.2579C105.52 40.0735 105.932 38.5614 107.124 37.8807L113.958 33.9597ZM103.807 24.5101L99.8235 31.3663C99.1385 32.5508 99.5498 34.0628 100.742 34.7435C101.934 35.4243 103.455 35.0159 104.14 33.8312L108.124 26.9749C108.809 25.7905 108.397 24.2784 107.205 23.5977C106.014 22.9173 104.492 23.3257 103.807 24.5101ZM119.612 46.757C120.987 46.757 122.102 47.8651 122.102 49.2318C122.102 50.5985 120.987 51.7065 119.612 51.7065H111.645C110.27 51.7065 109.155 50.5985 109.155 49.2318C109.155 47.8651 110.27 46.757 111.645 46.757H119.612Z" fill="#ACC8CC"/>
<path fill-rule="evenodd" clip-rule="evenodd" d="M63.338 70.1562L56.8789 75.916L69.4067 97.4791C69.9802 98.4657 71.2577 98.8061 72.2505 98.2365L75.9986 96.086C76.9917 95.5161 77.3336 94.2466 76.7605 93.26L63.338 70.1562Z" fill="#ACC8CC"/>
<path fill-rule="evenodd" clip-rule="evenodd" d="M59.3632 77.8466L50.4085 64.7949L44.3435 68.2746C40.5682 70.4407 39.2629 75.2821 41.4426 79.0338C43.6222 82.7855 48.4944 84.0827 52.2694 81.9169L59.3632 77.8466Z" fill="#ACC8CC"/>
<path fill-rule="evenodd" clip-rule="evenodd" d="M98.877 53.48C102.202 51.572 103.352 47.3072 101.432 44.0027C99.5124 40.6982 95.2205 39.5553 91.8955 41.463C88.5702 43.371 87.4202 47.6358 89.3402 50.9403C91.2598 54.2448 95.5514 55.3876 98.877 53.48Z" fill="#ACC8CC"/>
<path fill-rule="evenodd" clip-rule="evenodd" d="M56.7882 54.0909L46.0573 60.2478C43.9976 61.4295 43.2879 64.0623 44.477 66.1091L53.6898 81.9662C54.8788 84.0131 57.5282 84.7183 59.5879 83.5367L70.3188 77.3798L103.844 70.0276C104.712 69.7639 105.348 69.1788 105.68 68.3404C106.013 67.5016 105.949 66.6426 105.495 65.8622L84.4139 29.5767C83.9604 28.796 83.2438 28.3112 82.347 28.178C81.4498 28.0447 80.622 28.3 79.9585 28.9143L56.7882 54.0909Z" fill="#ACC8CC"/>
<path fill-rule="evenodd" clip-rule="evenodd" d="M78.6893 25.6891C77.0218 26.6459 76.4449 28.7843 77.4077 30.4417L101.238 71.459C102.201 73.1161 104.353 73.6891 106.02 72.7326C107.688 71.7758 108.264 69.6374 107.301 67.9803L83.4715 26.9623C82.5087 25.3052 80.3568 24.7323 78.6893 25.6891Z" fill="#C2D9D3"/>
<path fill-rule="evenodd" clip-rule="evenodd" d="M53.689 81.9658C54.8781 84.0126 57.5274 84.7179 59.5871 83.5363C63.164 81.4842 66.7412 79.4318 70.3181 77.3794C65.8081 69.6163 61.2977 61.8536 56.7877 54.0908L46.0568 60.2477C43.9987 61.4284 43.2877 64.0628 44.4765 66.109C47.5474 71.3945 50.6184 76.68 53.689 81.9658Z" fill="#C2D9D3"/>
<path fill-rule="evenodd" clip-rule="evenodd" d="M3.62781 67.9785C3.08844 69.1558 2.8125 70.4551 2.8125 71.8492V143.329C2.8125 145.834 3.81812 148.113 5.44844 149.788C7.15156 151.537 9.53594 152.627 12.1687 152.627H147.831C150.464 152.627 152.848 151.537 154.551 149.788C156.182 148.113 157.187 145.834 157.187 143.33L157.188 71.8492C157.188 70.4554 156.912 69.1564 156.372 67.9788L84.8041 110.54C81.7678 112.345 78.2312 112.345 75.195 110.54L3.62781 67.9785Z" fill="#ACC8CC"/>
<path fill-rule="evenodd" clip-rule="evenodd" d="M53.7348 97.7773L5.44922 149.788C7.15234 151.537 9.53672 152.628 12.1695 152.628H147.832C150.465 152.628 152.849 151.537 154.552 149.788L106.266 97.7773L84.8048 110.54C81.7686 112.346 78.232 112.346 75.1958 110.54L53.7348 97.7773Z" fill="#C2D9D3"/>
</svg>
