<svg width="25" height="25" viewBox="0 0 25 25" fill="none" xmlns="http://www.w3.org/2000/svg">
<g clip-path="url(#clip0_11025_37915)">
<path d="M24.5 12.6631C24.5 6.03566 19.1274 0.663086 12.5 0.663086C5.87258 0.663086 0.5 6.03566 0.5 12.6631C0.5 18.6525 4.8882 23.6171 10.625 24.5173V16.1318H7.57812V12.6631H10.625V10.0193C10.625 7.01184 12.4166 5.35059 15.1576 5.35059C16.4701 5.35059 17.8438 5.58496 17.8438 5.58496V8.53809H16.3306C14.84 8.53809 14.375 9.46316 14.375 10.4131V12.6631H17.7031L17.1711 16.1318H14.375V24.5173C20.1118 23.6171 24.5 18.6525 24.5 12.6631Z" fill="#1877F2"/>
<path d="M17.1711 16.1318L17.7031 12.6631H14.375V10.4131C14.375 9.4641 14.84 8.53809 16.3306 8.53809H17.8438V5.58496C17.8438 5.58496 16.4705 5.35059 15.1576 5.35059C12.4166 5.35059 10.625 7.01184 10.625 10.0193V12.6631H7.57812V16.1318H10.625V24.5173C11.8674 24.7117 13.1326 24.7117 14.375 24.5173V16.1318H17.1711Z" fill="white"/>
</g>
<defs>
<clipPath id="clip0_11025_37915">
<rect width="24" height="24" fill="white" transform="translate(0.5 0.663086)"/>
</clipPath>
</defs>
</svg>
