<svg width="21" height="20" viewBox="0 0 21 20" fill="none" xmlns="http://www.w3.org/2000/svg">
<path d="M18.8327 11.666L16.3835 9.90261C15.1109 8.9863 13.3716 9.081 12.2059 10.1301L8.79275 13.202C7.62711 14.251 5.88785 14.3457 4.61519 13.4294L2.16602 11.666M5.49935 18.3327H15.4993C17.3403 18.3327 18.8327 16.8403 18.8327 14.9993V4.99935C18.8327 3.1584 17.3403 1.66602 15.4993 1.66602H5.49935C3.6584 1.66602 2.16602 3.1584 2.16602 4.99935V14.9993C2.16602 16.8403 3.6584 18.3327 5.49935 18.3327ZM9.66602 7.08268C9.66602 8.23328 8.73328 9.16602 7.58268 9.16602C6.43209 9.16602 5.49935 8.23328 5.49935 7.08268C5.49935 5.93209 6.43209 4.99935 7.58268 4.99935C8.73328 4.99935 9.66602 5.93209 9.66602 7.08268Z" stroke="white" stroke-width="1.5" stroke-linecap="round"/>
</svg>
