<svg width="24" height="25" viewBox="0 0 24 25" fill="none" xmlns="http://www.w3.org/2000/svg">
<g clip-path="url(#clip0_11025_37908)">
<path d="M23.7663 12.9393C23.7663 12.1236 23.7001 11.3035 23.559 10.501H12.2402V15.122H18.722C18.453 16.6123 17.5888 17.9307 16.3233 18.7685V21.7668H20.1903C22.4611 19.6768 23.7663 16.5903 23.7663 12.9393Z" fill="#4285F4"/>
<path d="M12.2391 24.6634C15.4756 24.6634 18.205 23.6008 20.1936 21.7665L16.3266 18.7681C15.2507 19.5001 13.8618 19.9146 12.2435 19.9146C9.11291 19.9146 6.45849 17.8025 5.50607 14.9629H1.51562V18.0538C3.55274 22.106 7.70192 24.6634 12.2391 24.6634Z" fill="#34A853"/>
<path d="M5.50277 14.9638C5.00011 13.4734 5.00011 11.8596 5.50277 10.3693V7.27832H1.51674C-0.185266 10.6691 -0.185266 14.664 1.51674 18.0547L5.50277 14.9638Z" fill="#FBBC04"/>
<path d="M12.2391 5.41275C13.9499 5.38629 15.6034 6.03005 16.8425 7.21175L20.2685 3.7857C18.0991 1.74859 15.2198 0.62862 12.2391 0.663895C7.70192 0.663895 3.55274 3.22131 1.51562 7.27789L5.50166 10.3688C6.44967 7.52482 9.1085 5.41275 12.2391 5.41275Z" fill="#EA4335"/>
</g>
<defs>
<clipPath id="clip0_11025_37908">
<rect width="24" height="24" fill="white" transform="translate(0 0.663086)"/>
</clipPath>
</defs>
</svg>
