<svg width="32" height="32" viewBox="0 0 32 32" fill="none" xmlns="http://www.w3.org/2000/svg">
<path d="M24.8997 31.9831L7.13135 32C3.2223 32.0036 0.0213251 28.8088 0.016883 24.8997L2.96183e-06 7.13135C-0.00355072 3.2223 3.19121 0.0213251 7.10026 0.016883L24.8687 2.96183e-06C28.7777 -0.00355072 31.9787 3.19121 31.9831 7.10026L32 24.8687C32.0044 28.7786 28.8088 31.9796 24.8997 31.9831Z" fill="url(#paint0_radial_11438_40497)"/>
<path d="M24.8997 31.9831L7.13135 32C3.2223 32.0035 0.0213251 28.8088 0.016883 24.8997L2.96183e-06 7.13135C-0.00355072 3.2223 3.19121 0.0213251 7.10026 0.016883L24.8687 2.96183e-06C28.7777 -0.00355072 31.9787 3.19121 31.9831 7.10026L32 24.8687C32.0044 28.7786 28.8088 31.9796 24.8997 31.9831Z" fill="url(#paint1_radial_11438_40497)"/>
<path d="M16.0002 22.2191C12.5718 22.2191 9.78125 19.4295 9.78125 16.0002C9.78125 12.5709 12.5718 9.78125 16.0002 9.78125C19.4286 9.78125 22.2191 12.5709 22.2191 16.0002C22.2191 19.4295 19.4286 22.2191 16.0002 22.2191ZM16.0002 11.5581C13.5508 11.5581 11.5581 13.5508 11.5581 16.0002C11.5581 18.4496 13.5508 20.4423 16.0002 20.4423C18.4496 20.4423 20.4423 18.4496 20.4423 16.0002C20.4423 13.5508 18.4496 11.5581 16.0002 11.5581Z" fill="white"/>
<path d="M22.6627 10.6692C23.3987 10.6692 23.9953 10.0725 23.9953 9.33654C23.9953 8.60054 23.3987 8.00391 22.6627 8.00391C21.9267 8.00391 21.3301 8.60054 21.3301 9.33654C21.3301 10.0725 21.9267 10.6692 22.6627 10.6692Z" fill="white"/>
<path d="M21.3312 27.5501H10.6701C7.2417 27.5501 4.45117 24.7605 4.45117 21.3312V10.6701C4.45117 7.24081 7.2417 4.45117 10.6701 4.45117H21.3312C24.7596 4.45117 27.5501 7.24081 27.5501 10.6701V21.3312C27.5501 24.7605 24.7596 27.5501 21.3312 27.5501ZM10.6701 6.22801C8.22074 6.22801 6.22801 8.22074 6.22801 10.6701V21.3312C6.22801 23.7805 8.22074 25.7732 10.6701 25.7732H21.3312C23.7805 25.7732 25.7732 23.7805 25.7732 21.3312V10.6701C25.7732 8.22074 23.7805 6.22801 21.3312 6.22801H10.6701Z" fill="white"/>
<defs>
<radialGradient id="paint0_radial_11438_40497" cx="0" cy="0" r="1" gradientUnits="userSpaceOnUse" gradientTransform="translate(11.8959 32.0231) scale(39.8892 39.8892)">
<stop stop-color="#FFDD55"/>
<stop offset="0.328" stop-color="#FF543F"/>
<stop offset="0.348" stop-color="#FC5245"/>
<stop offset="0.504" stop-color="#E64771"/>
<stop offset="0.643" stop-color="#D53E91"/>
<stop offset="0.761" stop-color="#CC39A4"/>
<stop offset="0.841" stop-color="#C837AB"/>
</radialGradient>
<radialGradient id="paint1_radial_11438_40497" cx="0" cy="0" r="1" gradientUnits="userSpaceOnUse" gradientTransform="translate(5.14928 -0.399517) scale(26.4865 17.6479)">
<stop stop-color="#4168C9"/>
<stop offset="0.999" stop-color="#4168C9" stop-opacity="0"/>
</radialGradient>
</defs>
</svg>
