<svg width="24" height="24" viewBox="0 0 24 24" fill="none" xmlns="http://www.w3.org/2000/svg">
<path d="M18.4824 2.00222C18.1379 1.9971 17.7493 2.00026 17.3262 2.01785C15.6335 2.0882 13.3831 2.38829 11.1523 3.30496C8.9216 4.22162 6.6816 5.78567 5.11719 8.34988C3.64878 10.7567 2.80897 14.0203 2.98828 18.3245C2.56698 19.488 2.21648 20.7404 2 22.0979H4.0332C4.22648 21.014 4.51569 20.0034 4.85938 19.055C4.90082 19.0437 4.94237 19.0331 4.98633 19.0296L5.01953 19.0276V19.0237C9.8773 18.6151 13.9979 15.4605 16.293 12.76L16.8105 12.1507L15.8086 10.8147L17.9863 10.4514L18.2227 10.055C20.2957 6.5965 21 3.30886 21 3.30886L21.2266 2.25027L20.1543 2.10769C20.1543 2.10769 19.5159 2.0176 18.4824 2.00222ZM18.1562 4.01785C18.3369 4.02733 18.4731 4.04557 18.6973 4.05886C18.4017 5.07805 17.8327 6.62357 16.6875 8.64089L12.2344 9.38113L14.1738 11.969C12.2482 14.0341 9.21114 16.2354 5.81445 16.8518C7.91632 12.712 10.8743 10.3743 10.916 10.3421L9.70117 8.75417C9.54927 8.87013 7.43508 10.5285 5.42383 13.5276C5.70094 11.8683 6.16662 10.4739 6.82617 9.39285C8.1396 7.24002 9.97998 5.94852 11.9121 5.15457C13.8442 4.36061 15.8387 4.09358 17.3496 4.02566C17.7506 4.00763 17.9756 4.00836 18.1562 4.01785Z" fill="#C2D9D3"/>
</svg>
