<svg width="28" height="28" viewBox="0 0 28 28" fill="none" xmlns="http://www.w3.org/2000/svg">
<path d="M13.9476 0.542569C13.9235 0.546944 13.8994 0.553506 13.8776 0.560069C13.6173 0.619131 13.4335 0.853194 13.4401 1.12007V3.36007C13.4379 3.56132 13.5429 3.74944 13.7179 3.85226C13.8929 3.95288 14.1073 3.95288 14.2823 3.85226C14.4573 3.74944 14.5623 3.56132 14.5601 3.36007V1.12007C14.5666 0.958194 14.501 0.802881 14.3851 0.693506C14.2669 0.581944 14.1073 0.527256 13.9476 0.542569ZM5.61757 3.99007C5.60007 3.99444 5.58257 4.00101 5.56507 4.00757C5.36382 4.04913 5.20195 4.20007 5.14288 4.39694C5.08382 4.59382 5.13851 4.80819 5.28507 4.95257L6.87757 6.54507C7.0132 6.71132 7.22976 6.78788 7.43976 6.73976C7.64757 6.69163 7.81163 6.52757 7.85976 6.31976C7.90788 6.10976 7.83132 5.89319 7.66507 5.75757L6.07257 4.16507C5.96757 4.05351 5.8232 3.99226 5.67007 3.99007C5.65257 3.99007 5.63507 3.99007 5.61757 3.99007ZM22.2601 3.99007C22.236 3.99444 22.2119 4.00101 22.1901 4.00757C22.0894 4.03382 21.9998 4.08851 21.9276 4.16507L20.3351 5.75757C20.1688 5.89319 20.0923 6.10976 20.1404 6.31976C20.1885 6.52757 20.3526 6.69163 20.5604 6.73976C20.7704 6.78788 20.9869 6.71132 21.1226 6.54507L22.7151 4.95257C22.8901 4.78632 22.9404 4.52601 22.8376 4.30726C22.7326 4.08632 22.5007 3.95944 22.2601 3.99007ZM14.0001 5.04007C9.67757 5.04007 6.16007 8.55757 6.16007 12.8801C6.16007 15.6188 7.38726 17.4585 8.54007 18.8126C9.11757 19.4885 9.67538 20.0616 10.0626 20.5626C10.4498 21.0635 10.6401 21.4638 10.6401 21.8401V23.8176C10.5657 23.9729 10.5657 24.1523 10.6401 24.3076V24.6401C10.6401 25.561 11.3991 26.3201 12.3201 26.3201H12.7576C13.066 26.6613 13.5057 26.8801 14.0001 26.8801C14.4944 26.8801 14.9341 26.6613 15.2426 26.3201H15.6801C16.601 26.3201 17.3601 25.561 17.3601 24.6401V24.1851C17.3754 24.1107 17.3754 24.0319 17.3601 23.9576V21.8401C17.3601 21.4638 17.5504 21.0591 17.9376 20.5626C18.3248 20.066 18.8826 19.5038 19.4601 18.8301C20.6129 17.4826 21.8401 15.6429 21.8401 12.8801C21.8401 8.55757 18.3226 5.04007 14.0001 5.04007ZM14.0001 6.16007C17.7188 6.16007 20.7201 9.16132 20.7201 12.8801C20.7201 15.3213 19.7073 16.8438 18.6201 18.1126C18.0776 18.7469 17.5154 19.3004 17.0626 19.8801C16.7301 20.3066 16.4916 20.7726 16.3626 21.2801H11.6376C11.5085 20.7726 11.2701 20.3088 10.9376 19.8801C10.4848 19.296 9.92257 18.7338 9.38007 18.0951C8.29288 16.8198 7.28007 15.2951 7.28007 12.8801C7.28007 9.16132 10.2813 6.16007 14.0001 6.16007ZM2.08257 12.3201C1.77413 12.3638 1.55757 12.6504 1.60132 12.9588C1.64507 13.2673 1.93163 13.4838 2.24007 13.4401H4.48007C4.68132 13.4423 4.86945 13.3373 4.97226 13.1623C5.07289 12.9873 5.07289 12.7729 4.97226 12.5979C4.86945 12.4229 4.68132 12.3179 4.48007 12.3201H2.24007C2.22257 12.3201 2.20507 12.3201 2.18757 12.3201C2.17007 12.3201 2.15257 12.3201 2.13507 12.3201C2.11757 12.3201 2.10007 12.3201 2.08257 12.3201ZM23.3626 12.3201C23.0541 12.3638 22.8376 12.6504 22.8813 12.9588C22.9251 13.2673 23.2116 13.4838 23.5201 13.4401H25.7601C25.9613 13.4423 26.1494 13.3373 26.2523 13.1623C26.3529 12.9873 26.3529 12.7729 26.2523 12.5979C26.1494 12.4229 25.9613 12.3179 25.7601 12.3201H23.5201C23.5026 12.3201 23.4851 12.3201 23.4676 12.3201C23.4501 12.3201 23.4326 12.3201 23.4151 12.3201C23.3976 12.3201 23.3801 12.3201 23.3626 12.3201ZM7.21007 19.0401C7.0832 19.0576 6.96507 19.121 6.87757 19.2151L5.28507 20.8076C5.11882 20.9432 5.04226 21.1598 5.09038 21.3698C5.13851 21.5776 5.30257 21.7416 5.51038 21.7898C5.72038 21.8379 5.93695 21.7613 6.07257 21.5951L7.66507 20.0026C7.83132 19.8429 7.88163 19.5957 7.79195 19.3835C7.70445 19.1713 7.49226 19.0357 7.26257 19.0401C7.24507 19.0401 7.22757 19.0401 7.21007 19.0401ZM20.6151 19.0401C20.4051 19.0773 20.2366 19.2304 20.1776 19.4338C20.1185 19.6394 20.1798 19.8582 20.3351 20.0026L21.9276 21.5951C22.0632 21.7613 22.2798 21.8379 22.4898 21.7898C22.6976 21.7416 22.8616 21.5776 22.9098 21.3698C22.9579 21.1598 22.8813 20.9432 22.7151 20.8076L21.1226 19.2151C21.0176 19.1035 20.8732 19.0423 20.7201 19.0401C20.7026 19.0401 20.6851 19.0401 20.6676 19.0401C20.6501 19.0401 20.6326 19.0401 20.6151 19.0401ZM11.7601 22.4001H16.2401V23.5201H13.4401C13.4226 23.5201 13.4051 23.5201 13.3876 23.5201C13.3701 23.5201 13.3526 23.5201 13.3351 23.5201C13.0266 23.5485 12.7991 23.8241 12.8276 24.1326C12.856 24.441 13.1316 24.6685 13.4401 24.6401H16.2401C16.2401 24.9573 15.9973 25.2001 15.6801 25.2001H12.3201C12.0029 25.2001 11.7601 24.9573 11.7601 24.6401C11.9613 24.6423 12.1494 24.5373 12.2523 24.3623C12.3529 24.1873 12.3529 23.9729 12.2523 23.7979C12.1494 23.6229 11.9613 23.5179 11.7601 23.5201V22.4001Z" fill="#ACC8CC"/>
</svg>
