<svg width="20" height="20" viewBox="0 0 20 20" fill="none" xmlns="http://www.w3.org/2000/svg">
<path d="M15.001 6.66667H16.6676C17.5881 6.66667 18.3343 7.41286 18.3343 8.33333V15.8333C18.3343 16.7538 17.5881 17.5 16.6676 17.5H15.001C14.0805 17.5 13.3343 16.7538 13.3343 15.8333V8.33333C13.3343 7.41286 14.0805 6.66667 15.001 6.66667Z" stroke="#667085" stroke-width="1.5" stroke-linecap="round" stroke-linejoin="round"/>
<path d="M6.77021 17.5H9.82504C10.4831 17.5 11.1265 17.3052 11.674 16.9402L12.9632 16.0807C13.195 15.9262 13.3343 15.666 13.3343 15.3873V8.55464C13.3343 8.40961 13.2964 8.2671 13.2245 8.14119L10.001 2.5H8.8937C7.22976 2.5 6.23727 4.35447 7.16026 5.73896L8.33429 7.5H3.80225C2.71797 7.5 1.92237 8.51898 2.18535 9.57089L3.53641 14.9751C3.90738 16.459 5.24066 17.5 6.77021 17.5Z" stroke="#667085" stroke-width="1.5" stroke-linecap="round" stroke-linejoin="round"/>
</svg>
