<svg width="20" height="20" viewBox="0 0 20 20" fill="none" xmlns="http://www.w3.org/2000/svg">
<path fill-rule="evenodd" clip-rule="evenodd" d="M9.62156 17.5H7.2891C5.45363 17.5 3.8537 16.2508 3.40853 14.4701L2.28726 9.98507C1.97169 8.72278 2.92641 7.5 4.22755 7.5H8.33266L7.5905 6.38675C6.4829 4.72536 7.67388 2.5 9.67062 2.5H9.99933L13.2009 8.10276C13.2872 8.25386 13.3327 8.42487 13.3327 8.5989V15.2981C13.3327 15.6325 13.1656 15.9447 12.8874 16.1302L11.8404 16.8282C11.1833 17.2662 10.4113 17.5 9.62156 17.5ZM14.5827 8.54167V15.625C14.5827 16.6605 15.4221 17.5 16.4577 17.5C17.4932 17.5 18.3327 16.6605 18.3327 15.625V8.54166C18.3327 7.50613 17.4932 6.66667 16.4577 6.66667C15.4221 6.66667 14.5827 7.50613 14.5827 8.54167Z" fill="#ACC8CC"/>
</svg>
