<svg width="20" height="20" viewBox="0 0 20 20" fill="none" xmlns="http://www.w3.org/2000/svg">
<g clip-path="url(#clip0_11425_33748)">
<path d="M8.33252 10.834C8.6904 11.3124 9.14699 11.7083 9.67131 11.9947C10.1956 12.2812 10.7754 12.4516 11.3714 12.4942C11.9674 12.5369 12.5655 12.4509 13.1253 12.2421C13.6851 12.0333 14.1935 11.7065 14.6159 11.284L17.1159 8.78396C17.8748 7.99811 18.2948 6.9456 18.2853 5.85312C18.2758 4.76063 17.8376 3.71558 17.0651 2.94304C16.2926 2.17051 15.2475 1.73231 14.155 1.72281C13.0625 1.71332 12.01 2.1333 11.2242 2.89229L9.79086 4.31729M11.6659 9.16729C11.308 8.68885 10.8514 8.29297 10.3271 8.00651C9.80274 7.72004 9.22293 7.54969 8.62698 7.50701C8.03103 7.46433 7.43287 7.55032 6.87307 7.75914C6.31327 7.96796 5.80493 8.29473 5.38252 8.71729L2.88252 11.2173C2.12353 12.0031 1.70355 13.0556 1.71305 14.1481C1.72254 15.2406 2.16075 16.2857 2.93328 17.0582C3.70581 17.8307 4.75086 18.2689 5.84335 18.2784C6.93584 18.2879 7.98835 17.8679 8.77419 17.109L10.1992 15.684" stroke="#667085" stroke-width="1.66667" stroke-linecap="round" stroke-linejoin="round"/>
</g>
<defs>
<clipPath id="clip0_11425_33748">
<rect width="20" height="20" fill="white"/>
</clipPath>
</defs>
</svg>
