<svg width="16" height="15" viewBox="0 0 16 15" fill="none" xmlns="http://www.w3.org/2000/svg">
<path d="M10.6654 5.33301C11.7262 5.33301 12.7436 5.75444 13.4938 6.50458C14.2439 7.25473 14.6654 8.27214 14.6654 9.33301V13.9997H11.9987V9.33301C11.9987 8.97939 11.8582 8.64025 11.6082 8.3902C11.3581 8.14015 11.019 7.99967 10.6654 7.99967C10.3117 7.99967 9.9726 8.14015 9.72256 8.3902C9.47251 8.64025 9.33203 8.97939 9.33203 9.33301V13.9997H6.66536V9.33301C6.66536 8.27214 7.08679 7.25473 7.83694 6.50458C8.58708 5.75444 9.6045 5.33301 10.6654 5.33301Z" fill="white"/>
<path d="M3.9987 5.99967H1.33203V13.9997H3.9987V5.99967Z" fill="white"/>
<path d="M2.66536 3.99967C3.40174 3.99967 3.9987 3.40272 3.9987 2.66634C3.9987 1.92996 3.40174 1.33301 2.66536 1.33301C1.92898 1.33301 1.33203 1.92996 1.33203 2.66634C1.33203 3.40272 1.92898 3.99967 2.66536 3.99967Z" fill="white"/>
<path d="M10.6654 5.33301C11.7262 5.33301 12.7436 5.75444 13.4938 6.50458C14.2439 7.25473 14.6654 8.27214 14.6654 9.33301V13.9997H11.9987V9.33301C11.9987 8.97939 11.8582 8.64025 11.6082 8.3902C11.3581 8.14015 11.019 7.99967 10.6654 7.99967C10.3117 7.99967 9.9726 8.14015 9.72256 8.3902C9.47251 8.64025 9.33203 8.97939 9.33203 9.33301V13.9997H6.66536V9.33301C6.66536 8.27214 7.08679 7.25473 7.83694 6.50458C8.58708 5.75444 9.6045 5.33301 10.6654 5.33301Z" stroke="black" stroke-width="1.5" stroke-linecap="round" stroke-linejoin="round"/>
<path d="M3.9987 5.99967H1.33203V13.9997H3.9987V5.99967Z" stroke="black" stroke-width="1.5" stroke-linecap="round" stroke-linejoin="round"/>
<path d="M2.66536 3.99967C3.40174 3.99967 3.9987 3.40272 3.9987 2.66634C3.9987 1.92996 3.40174 1.33301 2.66536 1.33301C1.92898 1.33301 1.33203 1.92996 1.33203 2.66634C1.33203 3.40272 1.92898 3.99967 2.66536 3.99967Z" stroke="black" stroke-width="1.5" stroke-linecap="round" stroke-linejoin="round"/>
</svg>
