<svg width="77" height="38" viewBox="0 0 77 38" fill="none" xmlns="http://www.w3.org/2000/svg">
<path d="M21.8138 1.59763V0H6.08328V1.59763H11.6135V26.9139C11.6135 31.9526 10.9786 34.9635 9.70867 35.9467C9.21709 36.2744 8.66407 36.4383 8.04959 36.4383C6.94354 36.4383 6.20617 35.8033 5.83749 34.5334C5.38688 33.0996 5.07964 32.2598 4.91578 32.0141C4.4242 31.3586 3.68684 31.0309 2.70368 31.0309C1.43377 31.0309 0.59399 31.6249 0.184342 32.8129C0.0614472 33.1406 0 33.4478 0 33.7346C0 35.3732 1.06509 36.5816 3.19526 37.36C4.34227 37.7696 5.61218 37.9744 7.00499 37.9744C10.528 37.9744 13.1907 36.5816 14.9931 33.796C16.263 31.7887 16.898 29.2899 16.898 26.2994V1.59763H21.8138Z" fill="#313131"/>
<path d="M31.8811 31.088L18.291 2.22852V12.1902L29.7723 38.0002H31.1001L44.6902 7.6958V36.1647H39.9649V37.7268H54.1408C54.2657 36.5084 53.4118 36.1777 52.9692 36.1647H49.4545V36.0085V3.8687H54.0236V2.22852H44.8073L31.8811 31.088Z" fill="#ACC8CC"/>
<path d="M68.5432 1.54562L50.8711 18.3806V21.4562L54.0213 18.3806L68.2359 37.9674H76.4573C76.7032 36.8019 75.7914 36.2946 75.3048 36.1867H72.9229L57.5558 14.8193L68.9274 3.81186C70.1568 1.99887 72.1033 1.54562 72.9229 1.54562C74.1522 1.09237 74.3571 0.331561 74.3059 0.0078125H63.3953V1.54562H68.5432Z" fill="#313131"/>
</svg>
