<svg width="33" height="44" viewBox="0 0 33 44" fill="none" xmlns="http://www.w3.org/2000/svg">
<path d="M12.9824 26.1211L17.2659 28.5942L8.56749 43.6603L6.07085 38.0923L12.9824 26.1211Z" fill="#CE4444"/>
<path d="M12.9824 26.1211L8.69891 23.648L0.000461025 38.7142L6.07085 38.0923L12.9824 26.1211Z" fill="#983535"/>
<path d="M19.0938 26.1211L14.8102 28.5942L23.5087 43.6603L26.0053 38.0923L19.0938 26.1211Z" fill="#983535"/>
<path d="M19.0938 26.1211L23.3773 23.648L32.0757 38.7142L26.0053 38.0923L19.0938 26.1211Z" fill="#CE4444"/>
<circle cx="15.9055" cy="15.7473" r="14.8772" fill="url(#paint0_linear_12524_42778)" stroke="#765C00" stroke-width="0.259846"/>
<circle cx="15.9061" cy="15.746" r="11.5116" fill="#A88300"/>
<mask id="mask0_12524_42778" style="mask-type:alpha" maskUnits="userSpaceOnUse" x="4" y="5" width="25" height="24">
<circle cx="16.5208" cy="16.9759" r="11.5384" fill="#C28B37"/>
</mask>
<g mask="url(#mask0_12524_42778)">
<circle cx="15.9075" cy="15.7474" r="11.5384" fill="#C09525"/>
</g>
<path d="M15.9689 7.71875L18.4579 12.6967L23.4359 13.319L20.0177 17.152L20.9469 22.6527L15.9689 20.1637L10.9909 22.6527L11.9285 17.152L8.50195 13.319L13.4799 12.6967L15.9689 7.71875Z" fill="url(#paint1_linear_12524_42778)"/>
<defs>
<linearGradient id="paint0_linear_12524_42778" x1="15.9055" y1="1" x2="15.9055" y2="30.4946" gradientUnits="userSpaceOnUse">
<stop stop-color="#FFC600"/>
<stop offset="1" stop-color="#FFDE69"/>
</linearGradient>
<linearGradient id="paint1_linear_12524_42778" x1="15.9689" y1="7.71875" x2="15.9689" y2="22.6527" gradientUnits="userSpaceOnUse">
<stop stop-color="#FFFCDD"/>
<stop offset="1" stop-color="#FFE896"/>
</linearGradient>
</defs>
</svg>
