<svg width="36" height="36" viewBox="0 0 36 36" fill="none" xmlns="http://www.w3.org/2000/svg">
<path d="M8.625 4.5C6.36017 4.5 4.5 6.36017 4.5 8.625V27.375C4.5 29.6398 6.36017 31.5 8.625 31.5H27.375C29.6398 31.5 31.5 29.6398 31.5 27.375V8.625C31.5 6.36017 29.6398 4.5 27.375 4.5H8.625ZM8.625 6.75H27.375C28.4237 6.75 29.25 7.57633 29.25 8.625V27.375C29.25 27.4745 29.2351 27.5701 29.2207 27.665L20.1108 18.8511C19.5269 18.2861 18.7631 18.0044 18 18.0044C17.2369 18.0044 16.4746 18.2861 15.8906 18.8511L6.7793 27.665C6.76495 27.5701 6.75 27.4745 6.75 27.375V8.625C6.75 7.57633 7.57633 6.75 8.625 6.75ZM22.875 9.75C21.8438 9.75 20.9279 10.1772 20.3467 10.8311C19.7655 11.4849 19.5 12.3125 19.5 13.125C19.5 13.9375 19.7655 14.7651 20.3467 15.4189C20.9279 16.0728 21.8438 16.5 22.875 16.5C23.9062 16.5 24.8221 16.0728 25.4033 15.4189C25.9845 14.7651 26.25 13.9375 26.25 13.125C26.25 12.3125 25.9845 11.4849 25.4033 10.8311C24.8221 10.1772 23.9062 9.75 22.875 9.75ZM22.875 12C23.3438 12 23.5529 12.1353 23.7217 12.3252C23.8905 12.5151 24 12.8125 24 13.125C24 13.4375 23.8905 13.7349 23.7217 13.9248C23.5529 14.1147 23.3438 14.25 22.875 14.25C22.4062 14.25 22.1971 14.1147 22.0283 13.9248C21.8595 13.7349 21.75 13.4375 21.75 13.125C21.75 12.8125 21.8595 12.5151 22.0283 12.3252C22.1971 12.1353 22.4062 12 22.875 12ZM18.0015 20.2412C18.1961 20.2412 18.3901 20.317 18.5464 20.4683L27.6006 29.228C27.5259 29.2368 27.4523 29.25 27.375 29.25H8.625C8.54767 29.25 8.47408 29.2368 8.39941 29.228L17.4551 20.4683C17.6114 20.317 17.8068 20.2412 18.0015 20.2412Z" fill="#808191"/>
</svg>
