<svg width="15" height="15" viewBox="0 0 15 15" fill="none" xmlns="http://www.w3.org/2000/svg">
<path d="M7.20683 8.41228C7.53464 8.41228 7.80038 8.14653 7.80038 7.81873C7.80038 7.49092 7.53464 7.22517 7.20683 7.22517C6.87902 7.22517 6.61328 7.49092 6.61328 7.81873C6.61328 8.14653 6.87902 8.41228 7.20683 8.41228Z" stroke="#0F1106" stroke-width="1.1871" stroke-linecap="round" stroke-linejoin="round"/>
<path d="M7.20683 4.25742C7.53464 4.25742 7.80038 3.99167 7.80038 3.66386C7.80038 3.33605 7.53464 3.07031 7.20683 3.07031C6.87902 3.07031 6.61328 3.33605 6.61328 3.66386C6.61328 3.99167 6.87902 4.25742 7.20683 4.25742Z" stroke="#0F1106" stroke-width="1.1871" stroke-linecap="round" stroke-linejoin="round"/>
<path d="M7.20683 12.5671C7.53464 12.5671 7.80038 12.3014 7.80038 11.9736C7.80038 11.6458 7.53464 11.38 7.20683 11.38C6.87902 11.38 6.61328 11.6458 6.61328 11.9736C6.61328 12.3014 6.87902 12.5671 7.20683 12.5671Z" stroke="#0F1106" stroke-width="1.1871" stroke-linecap="round" stroke-linejoin="round"/>
</svg>
