<svg width="125" height="89" viewBox="0 0 125 89" fill="none" xmlns="http://www.w3.org/2000/svg">
<path d="M115.768 30.5298C118.078 30.5298 119.95 28.6574 119.95 26.3478C119.95 24.0381 118.078 22.1658 115.768 22.1658C113.458 22.1658 111.586 24.0381 111.586 26.3478C111.586 28.6574 113.458 30.5298 115.768 30.5298Z" fill="#EAEEF9"/>
<path d="M121.891 14.1077C123.469 14.1077 124.747 12.8291 124.747 11.2517C124.747 9.67443 123.469 8.39575 121.891 8.39575C120.314 8.39575 119.035 9.67443 119.035 11.2517C119.035 12.8291 120.314 14.1077 121.891 14.1077Z" fill="#EAEEF9"/>
<path d="M2.85607 33.4876C4.43344 33.4876 5.71215 32.209 5.71215 30.6316C5.71215 29.0543 4.43344 27.7756 2.85607 27.7756C1.27871 27.7756 0 29.0543 0 30.6316C0 32.209 1.27871 33.4876 2.85607 33.4876Z" fill="#EAEEF9"/>
<path d="M75.8943 16.8037C93.5027 16.8037 107.707 29.6092 107.707 45.3518C107.707 54.3979 103.011 62.5042 95.6157 67.7908V79.6565C95.6157 81.3013 93.7375 82.1236 92.5636 81.1838L82.4681 73.3125C80.3551 73.6649 78.2421 73.8999 76.0117 73.8999C58.4033 73.8999 44.1992 61.0944 44.1992 45.3518C44.1992 29.6092 58.4033 16.8037 75.8943 16.8037Z" fill="#D6DCE8" stroke="#AAB2C5" stroke-width="2.04003" stroke-miterlimit="10"/>
<path d="M44.7875 15.394C25.1835 15.394 9.33594 29.6093 9.33594 47.1141C9.33594 57.2176 14.6185 66.2637 22.8357 72.0203V85.1783C22.8357 86.9405 24.8313 87.9978 26.24 86.823L37.5093 78.1294C39.8571 78.5993 42.2049 78.8342 44.6701 78.8342C64.2741 78.8342 80.1216 64.6189 80.1216 47.1141C80.1216 29.6093 64.2741 15.394 44.7875 15.394Z" fill="white" stroke="#D6DCE8" stroke-width="2.04003" stroke-miterlimit="10"/>
<path d="M33.2215 48.4066C35.361 48.4066 37.0953 46.6709 37.0953 44.5297C37.0953 42.3886 35.361 40.6528 33.2215 40.6528C31.082 40.6528 29.3477 42.3886 29.3477 44.5297C29.3477 46.6709 31.082 48.4066 33.2215 48.4066Z" fill="#AAB2C5"/>
<path d="M55.1668 48.4066C57.3063 48.4066 59.0407 46.6709 59.0407 44.5297C59.0407 42.3886 57.3063 40.6528 55.1668 40.6528C53.0273 40.6528 51.293 42.3886 51.293 44.5297C51.293 46.6709 53.0273 48.4066 55.1668 48.4066Z" fill="#AAB2C5"/>
<path d="M49.0659 60.7423C48.7137 60.7423 48.3616 60.6249 48.1268 60.2724C47.1877 58.9801 45.779 58.2752 44.1356 58.2752C42.6095 58.2752 41.0834 58.9801 40.2617 60.2724C39.9095 60.8598 39.2052 60.9773 38.6183 60.5074C38.0313 60.1549 37.9139 59.45 38.3835 58.8626C39.6748 56.9829 41.9052 55.8081 44.2529 55.8081C46.6007 55.8081 48.7137 56.9829 50.1224 58.8626C50.4746 59.45 50.3572 60.1549 49.8876 60.5074C49.5355 60.7423 49.3007 60.7423 49.0659 60.7423Z" fill="#AAB2C5"/>
<path d="M36.048 12.4125C35.9065 12.4125 35.7649 12.4125 35.6234 12.4125C34.9157 12.1292 34.491 11.421 34.6326 10.7127L37.0388 2.92179C37.3219 2.21352 38.0296 1.78856 38.7373 1.93022C39.445 2.21352 39.8696 2.92179 39.7281 3.63005L37.4634 11.421C37.3219 11.9876 36.7557 12.4125 36.048 12.4125Z" fill="#AAB2C5"/>
<path d="M30.1021 14.1124C29.536 14.1124 28.9698 13.6874 28.6867 13.1208L25.0066 1.93023C24.7236 1.22196 25.1482 0.372046 25.8559 0.0887403C26.5636 -0.194566 27.4128 0.230393 27.6959 0.938659L31.376 12.1292C31.6591 12.8375 31.2345 13.6874 30.5268 13.9707C30.3852 14.1124 30.2437 14.1124 30.1021 14.1124Z" fill="#AAB2C5"/>
<path d="M24.5854 16.8039C24.1607 16.8039 23.8777 16.6622 23.5946 16.3789L19.0652 11.9877C18.4991 11.4211 18.4991 10.5712 19.0652 10.0045C19.6314 9.43794 20.4807 9.43794 21.0468 10.0045L25.5761 14.3958C26.1423 14.9624 26.1423 15.8123 25.5761 16.3789C25.2931 16.6622 24.8684 16.8039 24.5854 16.8039Z" fill="#AAB2C5"/>
</svg>
