<svg width="107" height="96" viewBox="0 0 107 96" fill="none" xmlns="http://www.w3.org/2000/svg">
<path d="M56.2402 94.8966C78.6404 94.8966 96.8006 76.7366 96.8006 54.2566C96.8006 31.7766 78.5604 13.6166 56.2402 13.6166C33.8399 13.6166 15.6797 31.7766 15.6797 54.2566C15.6797 76.7366 33.8399 94.8966 56.2402 94.8966Z" fill="#F1F3F9" stroke="#D6DCE8" stroke-width="1.60001" stroke-miterlimit="10"/>
<path d="M99.323 80.4781C101.135 80.4781 102.603 79.0096 102.603 77.1981C102.603 75.3866 101.135 73.9181 99.323 73.9181C97.5115 73.9181 96.043 75.3866 96.043 77.1981C96.043 79.0096 97.5115 80.4781 99.323 80.4781Z" fill="#EFF2F8"/>
<path d="M104.123 67.6781C105.36 67.6781 106.363 66.6752 106.363 65.4381C106.363 64.201 105.36 63.1981 104.123 63.1981C102.886 63.1981 101.883 64.201 101.883 65.4381C101.883 66.6752 102.886 67.6781 104.123 67.6781Z" fill="#EFF2F8"/>
<path d="M17.8416 27.5365C19.0787 27.5365 20.0816 26.5336 20.0816 25.2965C20.0816 24.0594 19.0787 23.0565 17.8416 23.0565C16.6045 23.0565 15.6016 24.0594 15.6016 25.2965C15.6016 26.5336 16.6045 27.5365 17.8416 27.5365Z" fill="#EFF2F8"/>
<path d="M4.16005 70.7365C6.45758 70.7365 8.3201 68.874 8.3201 66.5765C8.3201 64.279 6.45758 62.4165 4.16005 62.4165C1.86252 62.4165 0 64.279 0 66.5765C0 68.874 1.86252 70.7365 4.16005 70.7365Z" fill="#EFF2F8"/>
<path d="M61.3339 68.9911H52.32C50.2315 68.9911 48.4727 70.9178 48.4727 73.2057V78.1427C48.4727 83.2002 52.2101 87.2944 56.827 87.2944C61.4438 87.2944 65.1812 83.2002 65.1812 78.1427V73.2057C65.1812 70.7973 63.4225 68.9911 61.3339 68.9911Z" fill="white" stroke="#D6DCE8" stroke-width="1.60001" stroke-miterlimit="10"/>
<path fill-rule="evenodd" clip-rule="evenodd" d="M60.5295 21.6833C69.3501 23.7229 75.9206 31.622 75.9206 41.0618V43.5893C75.9206 64.908 91.9696 78.864 91.9696 78.864H19.9688C19.9688 78.864 36.1277 64.908 36.1277 43.5893V41.0618C36.1277 31.6231 42.6966 23.7248 51.5156 21.6841V20.842C51.5156 18.3146 53.4943 16.3365 56.0225 16.3365C58.5508 16.3365 60.5295 18.3146 60.5295 20.842V21.6833Z" fill="white"/>
<path d="M60.5295 21.6833H59.7295V22.3195L60.3492 22.4628L60.5295 21.6833ZM91.9696 78.864V79.664H94.1087L92.4945 78.2604L91.9696 78.864ZM19.9688 78.864L19.4458 78.2586L17.8185 79.664H19.9688V78.864ZM51.5156 21.6841L51.696 22.4635L52.3156 22.3201V21.6841H51.5156ZM76.7206 41.0618C76.7206 31.2414 69.8851 23.0254 60.7097 20.9039L60.3492 22.4628C68.8151 24.4203 75.1205 32.0026 75.1205 41.0618H76.7206ZM76.7206 43.5893V41.0618H75.1205V43.5893H76.7206ZM91.9696 78.864C92.4945 78.2604 92.4947 78.2605 92.4948 78.2606C92.4948 78.2606 92.4948 78.2606 92.4947 78.2605C92.4945 78.2603 92.4941 78.26 92.4934 78.2594C92.4921 78.2582 92.4898 78.2562 92.4865 78.2533C92.48 78.2476 92.4697 78.2385 92.4557 78.2261C92.4278 78.2012 92.3853 78.163 92.329 78.1116C92.2165 78.0088 92.0494 77.8533 91.8354 77.6469C91.4072 77.234 90.7919 76.6173 90.0517 75.8097C88.5707 74.194 86.593 71.8177 84.6152 68.7843C80.6567 62.7129 76.7206 54.0451 76.7206 43.5893H75.1205C75.1205 54.4522 79.2089 63.4218 83.2749 69.6581C85.3094 72.7785 87.344 75.2236 88.8722 76.8909C89.6366 77.7248 90.2751 78.365 90.7246 78.7986C90.9494 79.0154 91.1271 79.1806 91.2497 79.2927C91.311 79.3487 91.3585 79.3914 91.3913 79.4207C91.4078 79.4353 91.4205 79.4465 91.4294 79.4544C91.4339 79.4583 91.4374 79.4614 91.4399 79.4636C91.4412 79.4647 91.4422 79.4656 91.443 79.4663C91.4434 79.4667 91.4438 79.467 91.444 79.4672C91.4444 79.4675 91.4446 79.4677 91.9696 78.864ZM19.9688 79.664H91.9696V78.064H19.9688V79.664ZM35.3277 43.5893C35.3277 54.0437 31.3651 62.7107 27.3795 68.7822C25.3881 71.8156 23.3969 74.1919 21.9057 75.8077C21.1604 76.6153 20.5408 77.2321 20.1097 77.645C19.8942 77.8515 19.7258 78.0069 19.6125 78.1097C19.5559 78.1611 19.513 78.1994 19.4849 78.2243C19.4709 78.2367 19.4605 78.2458 19.4539 78.2515C19.4507 78.2544 19.4483 78.2564 19.447 78.2576C19.4463 78.2582 19.4459 78.2586 19.4457 78.2587C19.4456 78.2588 19.4456 78.2588 19.4456 78.2588C19.4457 78.2587 19.4458 78.2586 19.9688 78.864C20.4917 79.4695 20.4919 79.4692 20.4923 79.4689C20.4925 79.4688 20.4929 79.4684 20.4933 79.4681C20.4941 79.4674 20.4951 79.4665 20.4964 79.4654C20.499 79.4632 20.5025 79.4601 20.507 79.4562C20.516 79.4483 20.5288 79.4371 20.5453 79.4225C20.5783 79.3932 20.6262 79.3505 20.6879 79.2945C20.8113 79.1825 20.9902 79.0172 21.2165 78.8004C21.6691 78.3669 22.3119 77.7268 23.0815 76.8929C24.6201 75.2257 26.6686 72.7806 28.717 69.6602C32.8108 63.424 36.9277 54.4536 36.9277 43.5893H35.3277ZM35.3277 41.0618V43.5893H36.9277V41.0618H35.3277ZM51.3353 20.9047C42.1616 23.0274 35.3277 31.2425 35.3277 41.0618H36.9277C36.9277 32.0037 43.2316 24.4221 51.696 22.4635L51.3353 20.9047ZM52.3156 21.6841V20.842H50.7156V21.6841H52.3156ZM52.3156 20.842C52.3156 18.7566 53.9359 17.1366 56.0225 17.1366V15.5365C53.0527 15.5365 50.7156 17.8725 50.7156 20.842H52.3156ZM56.0225 17.1366C58.1092 17.1366 59.7295 18.7566 59.7295 20.842H61.3295C61.3295 17.8725 58.9924 15.5365 56.0225 15.5365V17.1366ZM59.7295 20.842V21.6833H61.3295V20.842H59.7295Z" fill="#D6DCE8"/>
<path d="M47.6728 52.2706C44.9247 52.2706 42.6162 50.5124 41.7368 47.9849C41.517 47.4355 41.8468 46.886 42.3964 46.6663C42.946 46.4465 43.4956 46.7761 43.7155 47.3256C44.2651 48.9739 45.914 50.1827 47.6728 50.1827C49.4316 50.1827 51.0805 49.0838 51.6301 47.3256C51.8499 46.7761 52.3996 46.4465 52.9492 46.6663C53.4988 46.886 53.8286 47.4355 53.6087 47.9849C52.7293 50.6223 50.4209 52.2706 47.6728 52.2706Z" fill="#AAB2C5"/>
<path d="M64.2743 52.2706C61.5262 52.2706 59.2178 50.5124 58.3384 47.9849C58.1185 47.4355 58.4483 46.886 58.9979 46.6663C59.5476 46.4465 60.0972 46.7761 60.317 47.3256C60.8667 48.9739 62.5155 50.1827 64.2743 50.1827C66.0331 50.1827 67.682 49.0838 68.2316 47.3256C68.4515 46.7761 69.0011 46.4465 69.5507 46.6663C70.1004 46.886 70.4301 47.4355 70.2103 47.9849C69.3309 50.6223 67.0225 52.2706 64.2743 52.2706Z" fill="#AAB2C5"/>
<path d="M56.0283 65.7256C57.4246 65.7256 58.5565 64.594 58.5565 63.1981C58.5565 61.8022 57.4246 60.6707 56.0283 60.6707C54.6319 60.6707 53.5 61.8022 53.5 63.1981C53.5 64.594 54.6319 65.7256 56.0283 65.7256Z" fill="#AAB2C5"/>
<path d="M69.5699 3.71974V0H83.9462V3.71974L74.1365 15.5553H84.1153V19.275H69.0625V15.5553L78.8722 3.71974H69.5699Z" fill="#AAB2C5"/>
<path d="M81.4125 31.6176V29.2505H90.7148V31.6176L84.4569 39.2261H90.8839V41.5933H81.0742V39.2261L87.3321 31.6176H81.4125Z" fill="#AAB2C5"/>
</svg>
