<svg width="69" height="68" viewBox="0 0 69 68" fill="none" xmlns="http://www.w3.org/2000/svg">
<rect x="5.08984" y="5" width="58.1333" height="58.1333" rx="29.0667" fill="#F2F4F7"/>
<path d="M35.3668 21.9551H26.889C26.2466 21.9551 25.6305 22.2103 25.1762 22.6645C24.722 23.1188 24.4668 23.7349 24.4668 24.3773V43.7551C24.4668 44.3975 24.722 45.0136 25.1762 45.4678C25.6305 45.9221 26.2466 46.1773 26.889 46.1773H41.4224C42.0648 46.1773 42.6809 45.9221 43.1351 45.4678C43.5894 45.0136 43.8446 44.3975 43.8446 43.7551V30.4329M35.3668 21.9551L43.8446 30.4329M35.3668 21.9551V30.4329H43.8446" stroke="#475467" stroke-width="2.01852" stroke-linecap="round" stroke-linejoin="round"/>
<rect x="5.08984" y="5" width="58.1333" height="58.1333" rx="29.0667" stroke="#F9FAFB" stroke-width="9.68889"/>
</svg>
