<svg width="62" height="50" viewBox="0 0 62 50" fill="none" xmlns="http://www.w3.org/2000/svg">
<path d="M4.95 46.4L4.10625 45.6688C4.1625 45.6125 6.1875 43.1375 8.26875 39.425C5.79375 36.6688 3.9375 32.0563 3.9375 24.6875C3.9375 14.6188 5.625 9.5 9 9.5C12.2063 9.5 14.0625 15.0125 14.0625 24.6875C14.0625 29.9188 11.8688 35.2625 9.61875 39.3125C11.6438 41.3375 13.95 42.125 15.75 42.125C18.3938 42.125 20.6438 40.1563 22.275 37.175C19.9125 34.8688 18.5625 30.0875 18.5625 23.5625C18.5625 17.7688 20.5875 15.125 22.5 15.125C25.2 15.125 26.4375 19.4 26.4375 23.6188C26.4375 28.4 25.4813 33.2375 23.6813 36.8938C24.3563 37.3438 25.0875 37.625 25.875 37.625C28.575 37.625 30.4313 29.6375 30.9375 24.6313L30.9938 24.125H31.5C34.0875 24.125 34.7063 26.9938 35.325 29.4688C35.8313 31.6625 36.225 33.125 37.1813 33.125C38.0813 33.125 38.475 31.1563 38.7563 29.4125C39.15 27.275 39.5438 25.25 41.1188 25.25V26.375C40.5 26.375 40.1625 28.2313 39.8813 29.6375C39.4313 31.775 38.9813 34.25 37.125 34.25C35.2125 34.25 34.7063 31.9438 34.2 29.75C33.6938 27.4438 33.1875 25.7 32.0063 25.3063C31.6688 28.175 30.0938 38.75 25.875 38.75C24.8625 38.75 23.9625 38.4688 23.1188 37.9063C21.3188 41.1125 18.8438 43.25 15.75 43.25C13.7813 43.25 11.25 42.4625 9.05625 40.325C7.03125 43.8688 5.11875 46.2313 4.95 46.4ZM9 10.625C7.81875 10.625 5.0625 11.975 5.0625 24.6875C5.0625 31.4375 6.69375 35.7688 8.775 38.4125C10.9125 34.475 12.9375 29.4688 12.9375 24.6875C12.9375 14.2813 10.8 10.625 9 10.625ZM22.5 16.25C21.3188 16.25 19.6875 18.5 19.6875 23.5625C19.6875 29.4688 20.8688 33.9125 22.7813 36.1063C24.4125 32.6188 25.3125 28.0063 25.3125 23.6188C25.3125 20.0188 24.3 16.25 22.5 16.25Z" fill="#ACC8CC"/>
<path d="M56.4824 2.00222C56.1379 1.9971 55.7493 2.00026 55.3262 2.01785C53.6335 2.0882 51.3831 2.38829 49.1523 3.30496C46.9216 4.22162 44.6816 5.78567 43.1172 8.34988C41.6488 10.7567 40.809 14.0203 40.9883 18.3245C40.567 19.488 40.2165 20.7404 40 22.0979H42.0332C42.2265 21.014 42.5157 20.0034 42.8594 19.055C42.9008 19.0437 42.9424 19.0331 42.9863 19.0296L43.0195 19.0276V19.0237C47.8773 18.6151 51.9979 15.4605 54.293 12.76L54.8105 12.1507L53.8086 10.8147L55.9863 10.4514L56.2227 10.055C58.2957 6.5965 59 3.30886 59 3.30886L59.2266 2.25027L58.1543 2.10769C58.1543 2.10769 57.5159 2.0176 56.4824 2.00222ZM56.1562 4.01785C56.3369 4.02733 56.4731 4.04557 56.6973 4.05886C56.4017 5.07805 55.8327 6.62357 54.6875 8.64089L50.2344 9.38113L52.1738 11.969C50.2482 14.0341 47.2111 16.2354 43.8145 16.8518C45.9163 12.712 48.8743 10.3743 48.916 10.3421L47.7012 8.75417C47.5493 8.87013 45.4351 10.5285 43.4238 13.5276C43.7009 11.8683 44.1666 10.4739 44.8262 9.39285C46.1396 7.24002 47.98 5.94852 49.9121 5.15457C51.8442 4.36061 53.8387 4.09358 55.3496 4.02566C55.7506 4.00763 55.9756 4.00836 56.1562 4.01785Z" fill="#C2D9D3"/>
</svg>
