<svg width="16" height="16" viewBox="0 0 16 16" fill="none" xmlns="http://www.w3.org/2000/svg">
<g clip-path="url(#clip0_11556_40268)">
<path d="M8 16C12.4183 16 16 12.4183 16 8C16 3.58172 12.4183 0 8 0C3.58172 0 0 3.58172 0 8C0 12.4183 3.58172 16 8 16Z" fill="#211D1E"/>
<path d="M8 0C3.58189 0 0 3.58189 0 8C0 11.3909 2.107 14.2881 5.08313 15.4535C5.0107 14.8214 4.95144 13.8469 5.10946 13.1556C5.25432 12.53 6.04444 9.1786 6.04444 9.1786C6.04444 9.1786 5.80741 8.69794 5.80741 7.99342C5.80741 6.88066 6.45267 6.05103 7.25597 6.05103C7.94074 6.05103 8.26996 6.56461 8.26996 7.17696C8.26996 7.86173 7.83539 8.88889 7.60494 9.84362C7.41399 10.6403 8.00658 11.2922 8.79012 11.2922C10.2123 11.2922 11.3053 9.79095 11.3053 7.63128C11.3053 5.71523 9.92922 4.3786 7.96049 4.3786C5.6823 4.3786 4.34568 6.08395 4.34568 7.84856C4.34568 8.53333 4.60905 9.27078 4.93827 9.67243C5.00411 9.75144 5.0107 9.82387 4.99095 9.90288C4.93169 10.1531 4.79342 10.6996 4.76708 10.8115C4.73416 10.9564 4.64856 10.9893 4.49712 10.9169C3.4963 10.4494 2.87078 8.99424 2.87078 7.81564C2.87078 5.29383 4.70123 2.97613 8.15802 2.97613C10.93 2.97613 13.0897 4.95144 13.0897 7.59835C13.0897 10.3572 11.3514 12.5761 8.94156 12.5761C8.13169 12.5761 7.3679 12.1547 7.11111 11.6543C7.11111 11.6543 6.70947 13.1819 6.6107 13.5572C6.43292 14.2551 5.94568 15.1243 5.61646 15.6576C6.36708 15.8881 7.1572 16.0132 7.98683 16.0132C12.4049 16.0132 15.9868 12.4313 15.9868 8.01317C16 3.58189 12.4181 0 8 0Z" fill="#C2D9D3"/>
</g>
<defs>
<clipPath id="clip0_11556_40268">
<rect width="16" height="16" fill="white"/>
</clipPath>
</defs>
</svg>
