<svg width="101" height="88" viewBox="0 0 101 88" fill="none" xmlns="http://www.w3.org/2000/svg">
<path d="M90.8418 44.5C95.92 44.5 100.217 48.7969 100.217 53.875V78.875C100.217 84.1484 95.92 88.25 90.8418 88.25H65.8418C60.5684 88.25 56.4668 84.1484 56.4668 78.875V32C56.4668 14.8125 70.334 0.75 87.7168 0.75H89.2793C91.8184 0.75 93.9668 2.89844 93.9668 5.4375V14.8125C93.9668 17.5469 91.8184 19.5 89.2793 19.5H87.7168C80.6856 19.5 75.2168 25.1641 75.2168 32V44.5H90.8418ZM34.5918 44.5C39.67 44.5 43.9668 48.7969 43.9668 53.875V78.875C43.9668 84.1484 39.67 88.25 34.5918 88.25H9.59183C4.31839 88.25 0.216827 84.1484 0.216827 78.875V32C0.216827 14.8125 14.084 0.75 31.4668 0.75H33.0293C35.5684 0.75 37.7168 2.89844 37.7168 5.4375V14.8125C37.7168 17.5469 35.5684 19.5 33.0293 19.5H31.4668C24.4356 19.5 18.9668 25.1641 18.9668 32V44.5H34.5918Z" fill="#ACC8CC"/>
</svg>
