<svg width="80" height="80" viewBox="0 0 80 80" fill="none" xmlns="http://www.w3.org/2000/svg">
<rect x="6.26953" y="6.23047" width="67.4595" height="67.4595" rx="33.7297" fill="#D1FADF"/>
<path d="M54.0495 38.6676V39.9605C54.0478 42.9912 53.0664 45.9401 51.2518 48.3674C49.4372 50.7948 46.8866 52.5705 43.9803 53.4298C41.074 54.2891 37.9678 54.1859 35.125 53.1356C32.2821 52.0853 29.855 50.1442 28.2055 47.6018C26.5559 45.0594 25.7725 42.0519 25.9719 39.0278C26.1713 36.0037 27.3429 33.1251 29.312 30.8213C31.281 28.5175 33.9421 26.9119 36.8982 26.244C39.8543 25.5761 42.9472 25.8817 45.7155 27.1151M54.0495 28.7173L39.9955 42.7854L35.7793 38.5692" stroke="#039855" stroke-width="2.81081" stroke-linecap="round" stroke-linejoin="round"/>
<rect x="6.26953" y="6.23047" width="67.4595" height="67.4595" rx="33.7297" stroke="#ECFDF3" stroke-width="11.2432"/>
</svg>
