<svg width="25" height="25" viewBox="0 0 25 25" fill="none" xmlns="http://www.w3.org/2000/svg">
<g clip-path="url(#clip0_11025_37921)">
<path d="M8.04752 22.4134C17.1042 22.4134 22.0578 14.91 22.0578 8.40312C22.0578 8.19 22.0578 7.97784 22.0434 7.76664C23.007 7.06959 23.8389 6.20652 24.5 5.21784C23.6014 5.61624 22.648 5.87739 21.6718 5.99256C22.6998 5.37725 23.4692 4.40934 23.8366 3.26904C22.8701 3.84265 21.8126 4.24686 20.7099 4.46424C19.9675 3.67481 18.9856 3.15208 17.9162 2.97692C16.8468 2.80177 15.7494 2.98395 14.794 3.49529C13.8385 4.00663 13.0782 4.81861 12.6307 5.80559C12.1833 6.79256 12.0735 7.8995 12.3186 8.95512C10.3609 8.85692 8.44576 8.34815 6.69745 7.46184C4.94915 6.57554 3.40676 5.3315 2.1704 3.81048C1.54073 4.89447 1.34787 6.17771 1.6311 7.3989C1.91433 8.62009 2.65234 9.68743 3.69488 10.3836C2.91123 10.3606 2.14465 10.1492 1.46 9.76728V9.82968C1.46031 10.9665 1.85385 12.0683 2.57387 12.948C3.29389 13.8278 4.29606 14.4314 5.4104 14.6566C4.68548 14.8543 3.92487 14.8832 3.18704 14.741C3.50181 15.7194 4.11443 16.5749 4.93924 17.188C5.76405 17.8011 6.75983 18.1411 7.78736 18.1606C6.76644 18.963 5.59731 19.5563 4.34687 19.9066C3.09643 20.2568 1.78921 20.357 0.5 20.2015C2.75183 21.6465 5.37192 22.413 8.04752 22.4095" fill="#1DA1F2"/>
</g>
<defs>
<clipPath id="clip0_11025_37921">
<rect width="24" height="24" fill="white" transform="translate(0.5 0.663086)"/>
</clipPath>
</defs>
</svg>
