<svg width="16" height="16" viewBox="0 0 16 16" fill="none" xmlns="http://www.w3.org/2000/svg">
<path d="M15.3327 1.99987C14.6943 2.45019 13.9874 2.79461 13.2393 3.01987C12.8378 2.55821 12.3042 2.231 11.7107 2.08249C11.1172 1.93397 10.4923 1.97133 9.92074 2.1895C9.34913 2.40768 8.85831 2.79614 8.51467 3.30235C8.17103 3.80856 7.99115 4.40809 7.99935 5.01987V5.68653C6.82777 5.71691 5.66686 5.45708 4.62002 4.93017C3.57318 4.40325 2.67289 3.62562 1.99935 2.66653C1.99935 2.66653 -0.667318 8.66653 5.33268 11.3332C3.9597 12.2652 2.32412 12.7325 0.666016 12.6665C6.66602 15.9999 13.9993 12.6665 13.9993 4.99987C13.9987 4.81417 13.9809 4.62893 13.946 4.44653C14.6264 3.77553 15.1066 2.92834 15.3327 1.99987Z" fill="white"/>
</svg>
