<svg width="32" height="27" viewBox="0 0 32 27" fill="none" xmlns="http://www.w3.org/2000/svg">
<path d="M10.0634 26.0017C22.1389 26.0017 28.7437 15.9972 28.7437 7.32134C28.7437 7.03718 28.7437 6.75431 28.7245 6.47271C30.0094 5.54331 31.1185 4.39255 32 3.0743C30.8019 3.60551 29.5307 3.95371 28.2291 4.10726C29.5998 3.28685 30.6255 1.99631 31.1155 0.475904C29.8268 1.24072 28.4168 1.77967 26.9466 2.0695C25.9567 1.01694 24.6475 0.31996 23.2216 0.086417C21.7957 -0.147126 20.3326 0.0957906 19.0586 0.777575C17.7847 1.45936 16.771 2.542 16.1743 3.85797C15.5777 5.17393 15.4314 6.64986 15.7581 8.05734C13.1479 7.92641 10.5943 7.24805 8.26327 6.06631C5.9322 4.88457 3.87569 3.22585 2.2272 1.19782C1.38764 2.64315 1.1305 4.35413 1.50813 5.98239C1.88577 7.61065 2.86979 9.03376 4.25984 9.96198C3.21498 9.93137 2.19286 9.6495 1.28 9.14022V9.22342C1.28041 10.7392 1.80513 12.2082 2.76516 13.3812C3.72519 14.5543 5.06141 15.3591 6.5472 15.6593C5.58064 15.9229 4.5665 15.9614 3.58272 15.7719C4.00242 17.0763 4.81924 18.217 5.91899 19.0345C7.01873 19.852 8.34644 20.3053 9.71648 20.3313C8.35525 21.4012 6.79642 22.1923 5.12917 22.6593C3.46191 23.1262 1.71895 23.2598 0 23.0525C3.00244 24.9792 6.4959 26.0012 10.0634 25.9965" fill="#1DA1F2"/>
</svg>
