<svg width="86" height="44" viewBox="0 0 86 44" fill="none" xmlns="http://www.w3.org/2000/svg">
<path d="M84.6586 1C71.0455 2.13443 70.2025 29.2932 56.7288 32.4211C45.6181 35.0003 39.992 20.3592 28.799 21.9474C16.6585 23.67 12.7735 38.9266 0.869141 42.8947H84.6586V1Z" fill="#ECFDF3"/>
<path d="M84.6586 1C71.0455 2.13443 70.2025 29.2932 56.7288 32.4211C45.6181 35.0003 39.992 20.3592 28.799 21.9474C16.6585 23.67 12.7735 38.9266 0.869141 42.8947H84.6586V1Z" fill="url(#paint0_linear_11325_30626)"/>
<path d="M0.869141 42.8947C12.7735 38.9266 16.6585 23.67 28.799 21.9474C39.992 20.3592 45.6181 35.0003 56.7288 32.4211C70.2025 29.2932 71.0455 2.13443 84.6586 1" stroke="#12B76A" stroke-width="1.30921" stroke-linecap="round" stroke-linejoin="round"/>
<defs>
<linearGradient id="paint0_linear_11325_30626" x1="42.7639" y1="1" x2="42.7639" y2="42.8947" gradientUnits="userSpaceOnUse">
<stop offset="0.641167" stop-color="white" stop-opacity="0"/>
<stop offset="1" stop-color="white"/>
</linearGradient>
</defs>
</svg>
